<?xml version="1.0" encoding="UTF-8"?>
<svg xmlns="http://www.w3.org/2000/svg" id="a" width="865.76" height="682.89" viewBox="0 0 865.76 682.89">
  <g>
    <path d="M690.62,169.19c-.92-1.99-2.82-3.34-5-3.54-2.14-.18-4.29,.19-6.24,1.08-1.79,.6-3.36,1.71-4.51,3.21-1.16,1.95-1.33,4.33-.45,6.42,.9,2.06,2.32,3.84,4.12,5.18,2.54-.43,5.11-2,7.31-3.31,1.63-.91,3.01-2.18,4.05-3.73,1.05-1.56,1.32-3.52,.72-5.31Z" fill="#14af6c"></path>
    <path d="M678.41,182.06l-.17-.13c-1.87-1.39-3.35-3.25-4.28-5.38-.94-2.23-.76-4.8,.48-6.88,1.25-1.63,2.89-2.8,4.78-3.43,1.98-.9,4.22-1.29,6.44-1.1,2.35,.22,4.42,1.69,5.41,3.83l.02,.05c.65,1.92,.35,4.07-.78,5.75-1.08,1.6-2.53,2.95-4.22,3.89l-.21,.13c-2.21,1.32-4.71,2.81-7.26,3.24l-.21,.04Zm6.15-15.96c-1.71,0-3.41,.37-4.98,1.08-1.75,.59-3.23,1.64-4.32,3.06-1.05,1.75-1.2,3.99-.39,5.92,.83,1.9,2.14,3.57,3.79,4.84,2.29-.45,4.63-1.84,6.7-3.07l.23-.13c1.56-.87,2.9-2.11,3.89-3.58,.96-1.42,1.21-3.23,.67-4.85-.84-1.81-2.6-3.04-4.58-3.23-.34-.03-.67-.04-1.01-.04Z"></path>
  </g>
  <path d="M667.45,241.85c-.27,0-.49-.22-.5-.49-.64-25.15,11.54-63.42,11.67-63.81,.08-.26,.36-.41,.63-.32,.26,.08,.41,.37,.32,.63-.12,.38-12.25,38.5-11.62,63.48,0,.28-.21,.51-.49,.51h-.01Z"></path>
  <g>
    <path d="M635.87,180.6c-1.88-.27-3.76,.53-4.87,2.08-.9,1.48-1.31,3.21-1.17,4.94-.05,1.64,.43,3.26,1.35,4.62,1.41,1.68,3.42,2.76,5.6,3,2.05,.25,4.13-.01,6.05-.76,.48-2,0-4.51-.47-6.67-.31-1.63-.99-3.17-2-4.5-1.11-1.42-2.71-2.39-4.49-2.71Z" fill="#14af6c"></path>
    <path d="M638.28,195.83c-.52,0-1.04-.03-1.56-.09-2.32-.26-4.42-1.39-5.92-3.17-1.02-1.5-1.52-3.2-1.47-4.96-.15-1.79,.28-3.6,1.24-5.19,1.24-1.73,3.29-2.61,5.37-2.31h.02c1.9,.35,3.6,1.38,4.79,2.9,1.05,1.39,1.77,3.01,2.1,4.71,.49,2.23,.96,4.8,.47,6.88l-.06,.25-.24,.09c-1.51,.58-3.12,.88-4.73,.88Zm-3.13-14.78c-1.47,0-2.86,.7-3.74,1.92-.83,1.37-1.21,2.97-1.08,4.61-.04,1.6,.4,3.1,1.27,4.38,1.31,1.55,3.18,2.55,5.24,2.78,1.87,.23,3.79,0,5.56-.64,.35-1.84-.08-4.15-.53-6.19-.3-1.56-.96-3.05-1.91-4.3-1.03-1.32-2.52-2.22-4.17-2.52-.22-.03-.43-.04-.64-.04Z"></path>
  </g>
  <path d="M659.59,243.71c-.26,0-.48-.2-.5-.46-1.97-27.54-20.72-54.48-20.91-54.75-.16-.23-.1-.54,.12-.7,.23-.16,.54-.1,.7,.12,.19,.27,19.1,27.44,21.09,55.25,.02,.28-.19,.51-.46,.53-.01,0-.02,0-.04,0Z"></path>
  <g id="b">
    <path d="M757.59,499.15H117.35c-.28,0-.5-.22-.5-.5s.22-.5,.5-.5H757.59c.28,0,.5,.22,.5,.5s-.22,.5-.5,.5Z"></path>
  </g>
  <g id="c">
    <g>
      <rect x="290.46" y="288.05" width="5.96" height="15.15" fill="#104fc1"></rect>
      <path d="M296.92,303.7h-6.96v-16.15h6.96v16.15Zm-5.96-1h4.96v-14.15h-4.96v14.15Z"></path>
    </g>
    <g>
      <rect x="575.15" y="288.05" width="5.96" height="15.15" fill="#104fc1"></rect>
      <path d="M581.61,303.7h-6.96v-16.15h6.96v16.15Zm-5.96-1h4.96v-14.15h-4.96v14.15Z"></path>
    </g>
    <g>
      <rect x="283.37" y="67.78" width="305.92" height="221.87" fill="#104fc1"></rect>
      <path d="M589.79,290.15H282.87V67.28h306.92v222.87Zm-305.92-1h304.92V68.28H283.87v220.87Z"></path>
    </g>
    <rect x="291.55" y="73.72" width="289.56" height="210"></rect>
    <g>
      <path d="M387.54,88.28h-81.91c-1.47,0-2.67-1.19-2.67-2.67h0c0-1.47,1.19-2.67,2.67-2.67h81.91c1.47,0,2.67,1.19,2.67,2.67h0c0,1.47-1.19,2.67-2.67,2.67h0Z" fill="#f1f2f2"></path>
      <path d="M387.54,88.78h-81.91c-1.75,0-3.17-1.42-3.17-3.17s1.42-3.17,3.17-3.17h81.91c1.75,0,3.17,1.42,3.17,3.17s-1.42,3.17-3.17,3.17Zm-81.91-5.33c-1.19,0-2.17,.97-2.17,2.17s.97,2.17,2.17,2.17h81.91c1.19,0,2.17-.97,2.17-2.17s-.97-2.17-2.17-2.17h-81.91Z"></path>
    </g>
    <g>
      <path d="M331.84,82.85h-26.2c-1.5,0-2.71,1.21-2.71,2.71s1.21,2.71,2.71,2.71h26.2v-5.42Z" fill="#104fc1"></path>
      <path d="M332.34,88.78h-26.7c-1.77,0-3.21-1.44-3.21-3.21s1.44-3.21,3.21-3.21h26.7v6.42Zm-26.7-5.42c-1.22,0-2.21,.99-2.21,2.21s.99,2.21,2.21,2.21h25.7v-4.42h-25.7Z"></path>
    </g>
    <g id="d">
      <g>
        <circle cx="529" cy="122.57" r="36.57" fill="#f1f2f2"></circle>
        <path d="M529,159.64c-20.44,0-37.07-16.63-37.07-37.07s16.63-37.07,37.07-37.07,37.07,16.63,37.07,37.07-16.63,37.07-37.07,37.07Zm0-73.14c-19.89,0-36.07,16.18-36.07,36.07s16.18,36.07,36.07,36.07,36.07-16.18,36.07-36.07-16.18-36.07-36.07-36.07Z"></path>
      </g>
      <ellipse cx="507.1" cy="121.35" rx="9.57" ry="10.16" fill="#e6e7e8"></ellipse>
      <circle cx="523.51" cy="100.84" r="8.01" fill="#e6e7e8"></circle>
      <ellipse cx="523.51" cy="132.29" rx="4.1" ry="4.69" fill="#e6e7e8"></ellipse>
      <ellipse cx="508.66" cy="140.49" rx="3.32" ry="3.12" fill="#e6e7e8"></ellipse>
      <ellipse cx="535.62" cy="111" rx="4.49" ry="4.1" fill="#e6e7e8"></ellipse>
      <circle cx="537.38" cy="96.74" r="2.35" fill="#e6e7e8"></circle>
      <path d="M508.86,103.96c0,1.83-1.66,3.32-3.72,3.32s-3.72-1.49-3.72-3.32,1.66-3.32,3.72-3.32,3.72,1.49,3.72,3.32Z" fill="#e6e7e8"></path>
      <ellipse cx="524" cy="117.2" rx="5" ry="5.37" fill="#e6e7e8"></ellipse>
      <ellipse cx="519.83" cy="146.18" rx="4.9" ry="6.68" transform="translate(161.77 550.38) rotate(-64.17)" fill="#e6e7e8"></ellipse>
    </g>
    <g id="e">
      <g>
        <path d="M357.91,238.76c-1.44,3.76-.55,8.01,2.29,10.87,4.86,4.86,6.58,8.29,6.58,9.72s1.43,4.58,1.72,6.58c.44,2.13,1.02,4.23,1.72,6.29l2.86-4,2,5.42c-.01-3.83,.27-7.65,.86-11.44,.5-2.83,.6-5.71,.29-8.57,0-.86,1.72-3.15,1.72-3.15l2.57,5.15s2-11.44,2.86-12.87,5.15-8.58,3.15-12.87c-2-4.29-16.87-10.3-22.02-7.44-5.15,2.86-6.58,16.3-6.58,16.3Z" fill="#14af6c"></path>
        <path d="M375.58,276.46l-2.65-7.19-2.88,4.03-.31-.92c-.7-2.07-1.29-4.21-1.73-6.35-.13-.93-.51-2.1-.88-3.23-.44-1.34-.85-2.61-.85-3.45,0-1.09-1.35-4.29-6.43-9.37-2.95-2.98-3.9-7.42-2.42-11.34,.13-1.14,1.64-13.74,6.82-16.62,3.19-1.77,9-.19,11.35,.57,4.57,1.48,10.08,4.33,11.37,7.09,1.36,2.92,.24,7.66-3.17,13.34-.59,.99-2,8.14-2.8,12.7l-.26,1.49-2.88-5.76c-.61,.89-1.14,1.84-1.14,2.18,.31,2.85,.22,5.78-.29,8.66-.58,3.74-.86,7.56-.85,11.35v2.82Zm-7.46-54.24c-1.4,0-2.56,.22-3.38,.68-4.86,2.7-6.31,15.78-6.32,15.92l-.03,.13c-1.37,3.57-.52,7.62,2.18,10.34,4.96,4.96,6.72,8.45,6.72,10.08,0,.68,.41,1.93,.8,3.14,.38,1.17,.77,2.38,.91,3.36,.37,1.75,.83,3.53,1.39,5.27l2.83-3.97,1.4,3.79c.1-2.95,.37-5.91,.82-8.83,.49-2.79,.59-5.63,.28-8.44,0-1,1.39-2.93,1.81-3.5l.49-.65,2.26,4.52c.59-3.23,1.94-10.36,2.66-11.55,3.23-5.38,4.34-9.79,3.12-12.4-.96-2.06-5.59-4.88-10.77-6.56-2.71-.88-5.19-1.33-7.18-1.33Z"></path>
      </g>
      <g>
        <path d="M500.9,259.35s-1.14-7.44,1.14-10.58,5.72-5.43,6.29-6.86c.57-1.43,6.58-9.15,6.58-9.15,0,0,1.43,2,3.72,4.58,2.29,2.57,5.43,3.72,5.15,7.44s3.43,7.72,3.43,7.72l1.43,5.15,1.43-11.44,2.29,2.86s0-5.72,.29-8.87c.29-3.15,.86-6.86,.86-6.86,0,0-6.86-8.58-7.15-9.44s-22.59,2.86-24.31,2.86-7.72,4.86-8.58,6.58-.57,3.72,.57,8.58c1.14,4.86,1.72,8.29,2,10.01l4.86,7.44Z" fill="#14af6c"></path>
        <path d="M501.74,261.55l-6.2-9.56c-.28-1.67-.86-5.14-2-9.98-1.11-4.72-1.5-6.99-.53-8.92,.88-1.75,7.03-6.85,9.03-6.85,.56,0,3.68-.46,7.31-.98,16.38-2.38,17.23-2.27,17.48-1.54,.25,.65,4.47,6.04,7.07,9.28l.14,.17-.03,.22s-.57,3.74-.85,6.83c-.28,3.09-.28,8.76-.28,8.82v1.43l-2.44-3.05-1.59,12.74-2.07-7.44c-.58-.65-3.76-4.39-3.48-8.01,.19-2.42-1.19-3.6-2.93-5.09-.7-.6-1.42-1.22-2.09-1.97-1.58-1.78-2.77-3.31-3.35-4.08-1.88,2.43-5.69,7.47-6.1,8.51-.32,.8-1.29,1.72-2.53,2.88-1.26,1.18-2.68,2.52-3.82,4.1-2.14,2.94-1.06,10.14-1.05,10.21l.35,2.28Zm-5.23-9.83l3.67,5.62c-.18-2.5-.17-6.64,1.45-8.87,1.2-1.65,2.72-3.09,3.95-4.24,1.1-1.03,2.05-1.93,2.28-2.52,.58-1.45,6.03-8.48,6.65-9.27l.41-.53,.39,.55s1.44,2.01,3.68,4.53c.62,.7,1.32,1.3,2,1.88,1.8,1.55,3.5,3.01,3.28,5.93-.27,3.45,3.26,7.3,3.3,7.34l.08,.09,.79,2.86,1.27-10.14,2.15,2.68c.02-1.91,.08-5.33,.28-7.5,.25-2.69,.7-5.83,.83-6.68-1.65-2.07-6.19-7.79-6.99-9.2-1.44-.2-10.82,1.16-16.49,1.99-4.36,.63-6.85,.99-7.45,.99-1.48,0-7.36,4.76-8.13,6.3-.77,1.54-.52,3.41,.61,8.24,1.12,4.78,1.71,8.23,1.99,9.94Z"></path>
      </g>
      <g>
        <path d="M506.32,194.15s-.46,3.2-1.14,7.7c-.51,3.4-1.16,7.55-1.84,11.64-.87,5.3-1.81,10.45-2.59,13.69-.41,1.74-.78,2.92-1.07,3.27-1.2,1.48-1.63,2.62-2.1,4.1-.23,.72-.48,1.53-.84,2.49-1.1,2.94,.32,2.22,.72,3.68,.41,1.41,2.13,8.65,3.24,12.46,.04,.13,.09,.26,.12,.38,1.1,3.67,1.46,11.37,1.46,11.37l-3.67-1.47s-2.08-4.35-3.54-7.29c-1.42-2.84-5.24-1.54-5.49-1.47l1.45-2.2s1.1-4.04,.74-6.23c-.37-2.2-6.97-15.05-6.97-15.05,0,0,0,13.94-.74,17.24-.72,3.3,0,8.09,0,17.61,0,3.56,.16,10.36,.36,17.63h-89.05c-.94-21.06-3.46-50.35-3.46-50.35,0,0-2.94,10.63-3.68,12.47-.72,1.83-4.76,9.54-4.76,9.54,.19-2.93,.19-5.87,0-8.8-.16-1.11-.26-2.21-.33-3.31-.11-1.47-.2-2.93-.4-4.39-.19-1.36-.6-2.63-1.57-4.2-.82-1.34-2.06-2.91-3.93-4.95-2.09-2.28-5.36-5.43-8.02-7.96-2.49-2.34-4.45-4.14-4.45-4.14,0,0,5.72-9.64,10.11-17.07,2.37-3.99,4.34-7.33,4.87-8.23,.49-.85,1.02-2.49,1.76-4.49,1.3-3.51,3.26-8.06,6.83-11.12,.53-.46,1.1-.88,1.7-1.27,.49-.31,.97-.59,1.45-.84,1.95-1.05,3.81-1.67,5.69-2.12,4.19-1.01,8.48-1.17,14.14-3.28,3.38-1.27,6-2.64,7.95-3.85,.5-.32,.96-.62,1.37-.91,.2-.14,.38-.28,.56-.4,.39-.28,.74-.54,1.03-.79,.2-.16,.37-.31,.53-.44,.69-.6,1.01-.95,1.01-.95l1.47,.74h31.18c1.56,0,3.1,.06,4.65,.19,6.08,.47,12.06,1.9,17.72,4.21,3.48,1.36,6.46,3.32,9.08,5.86,2.35,2.25,4.42,4.97,6.33,8.09,1.41,2.31,3.31,4.61,5.19,6.64,3.5,3.77,6.92,6.56,6.92,6.56Z" fill="#14af6c"></path>
        <path d="M484.95,284.22h-90.04l-.02-.48c-.76-17.05-2.58-39.76-3.23-47.56-.93,3.29-2.44,8.57-2.95,9.84-.73,1.83-4.62,9.27-4.78,9.58l-1.1,2.09,.15-2.36c.19-2.9,.19-5.84,0-8.74-.14-.94-.24-1.97-.33-3.31l-.03-.36c-.09-1.31-.19-2.67-.38-3.99-.2-1.44-.65-2.64-1.5-4-.82-1.34-2.05-2.89-3.88-4.88-1.65-1.8-4.26-4.39-8-7.93-2.49-2.34-4.45-4.14-4.45-4.14l-.3-.27,.21-.35s5.72-9.64,10.11-17.07c1.43-2.4,2.71-4.57,3.62-6.11l1.25-2.12c.35-.6,.73-1.67,1.22-3.03,.16-.43,.32-.89,.5-1.37,1.35-3.65,3.37-8.23,6.97-11.33,.58-.5,1.16-.93,1.76-1.31,.5-.32,.99-.6,1.48-.86,1.76-.95,3.61-1.64,5.81-2.17,1.43-.34,2.84-.59,4.35-.85,2.96-.51,6.03-1.03,9.73-2.42,2.88-1.08,5.52-2.36,7.86-3.8,.49-.31,.94-.61,1.35-.89,.12-.08,.22-.16,.33-.23l.23-.17c.38-.27,.71-.53,1-.77,.12-.09,.22-.18,.31-.26l.23-.19c.64-.55,.95-.89,.95-.89l.25-.28,1.7,.85h31.06c1.56,0,3.14,.06,4.69,.19,6.12,.47,12.13,1.9,17.87,4.24,3.47,1.36,6.49,3.31,9.24,5.96,2.27,2.17,4.37,4.85,6.41,8.19,1.2,1.98,2.93,4.18,5.13,6.56,3.43,3.7,6.83,6.49,6.87,6.52l.22,.18-.04,.28s-.46,3.2-1.14,7.71c-.59,3.92-1.24,8.05-1.84,11.64-.7,4.25-1.72,10.07-2.6,13.73-.6,2.57-.95,3.21-1.16,3.47-1.16,1.43-1.56,2.53-2.01,3.94l-.14,.43c-.2,.62-.42,1.31-.71,2.09-.61,1.62-.38,1.84-.03,2.17,.25,.24,.59,.56,.77,1.19,.15,.52,.48,1.83,.89,3.48,.7,2.77,1.65,6.57,2.34,8.97,.04,.13,.09,.27,.12,.4,1.1,3.66,1.46,11.15,1.47,11.47l.04,.78-4.57-1.83-.08-.18s-2.08-4.34-3.53-7.28c-1.1-2.21-4-1.5-4.86-1.22l-1.34,.42,2.15-3.29c.15-.56,1.02-4.04,.7-5.94-.25-1.49-3.82-8.77-5.98-13.06-.03,4.03-.17,12.71-.74,15.28-.43,1.94-.33,4.46-.19,8.27,.09,2.45,.2,5.49,.2,9.24,0,3.08,.12,8.85,.36,17.62v.51Zm-89.07-1h88.06c-.23-8.49-.35-14.1-.35-17.13,0-3.73-.11-6.76-.2-9.2-.14-3.88-.24-6.45,.21-8.52,.72-3.21,.72-17,.72-17.13v-2.07l.94,1.84c.27,.53,6.64,12.95,7.02,15.19,.38,2.28-.7,6.28-.75,6.45l-.06,.14-.76,1.15c1.52-.24,3.75-.15,4.83,2.02,1.29,2.59,3.05,6.28,3.46,7.12l2.75,1.1c-.12-2.04-.53-7.58-1.4-10.47-.03-.13-.07-.24-.11-.35-.71-2.44-1.67-6.26-2.37-9.04-.41-1.63-.74-2.94-.88-3.45-.1-.37-.27-.53-.49-.74-.62-.59-1-1.16-.22-3.25,.29-.77,.5-1.44,.7-2.05l.14-.43c.46-1.46,.92-2.7,2.19-4.26,.06-.07,.38-.56,.97-3.07,.87-3.63,1.89-9.43,2.58-13.66,.6-3.59,1.25-7.72,1.84-11.63,.56-3.73,.98-6.56,1.1-7.42-.81-.68-3.77-3.22-6.75-6.43-2.25-2.43-4.01-4.69-5.25-6.72-1.99-3.26-4.04-5.87-6.25-7.99-2.65-2.56-5.56-4.44-8.92-5.76-5.65-2.31-11.56-3.71-17.58-4.18-1.53-.13-3.08-.19-4.61-.19h-31.3l-1.25-.63c-.17,.17-.43,.41-.79,.72l-.22,.18c-.1,.08-.21,.17-.33,.27-.3,.25-.65,.52-1.06,.81l-.22,.16c-.11,.08-.23,.17-.35,.25-.42,.29-.88,.59-1.39,.91-2.4,1.48-5.1,2.79-8.04,3.89-3.8,1.42-7.05,1.97-9.92,2.47-1.49,.25-2.89,.5-4.28,.83-2.12,.51-3.89,1.16-5.57,2.07-.47,.25-.94,.52-1.42,.82-.56,.35-1.1,.76-1.65,1.22-3.43,2.95-5.38,7.39-6.69,10.92-.18,.48-.34,.93-.5,1.37-.5,1.4-.9,2.51-1.3,3.19l-1.25,2.12c-.91,1.54-2.19,3.71-3.62,6.11-3.9,6.59-8.84,14.93-9.91,16.72,.64,.59,2.24,2.07,4.16,3.87,3.76,3.56,6.39,6.17,8.05,7.99,1.87,2.04,3.14,3.64,3.99,5.03,.92,1.49,1.41,2.8,1.63,4.39,.19,1.36,.29,2.73,.38,4.06l.03,.36c.09,1.32,.19,2.33,.33,3.28,.15,2.21,.18,4.42,.11,6.62,1.25-2.41,3.21-6.26,3.69-7.46,.72-1.79,3.63-12.31,3.66-12.42l.74-2.68,.24,2.77c.03,.29,2.5,29.1,3.44,49.89Z"></path>
      </g>
      <path d="M391.89,233.89c-.06,0-.11,0-.17-.03-.26-.09-.39-.38-.3-.64,.03-.1,3.45-9.57,5.19-14.94,1.12-3.46,2.32-7.27,3.12-9.8,.46-1.45,.78-2.48,.89-2.79,.09-.26,.37-.4,.63-.32,.26,.09,.4,.37,.32,.63-.1,.31-.43,1.34-.88,2.77-.8,2.53-2,6.34-3.12,9.8-1.74,5.38-5.16,14.87-5.2,14.97-.07,.2-.27,.33-.47,.33Z"></path>
      <path d="M485.05,231.69c-.1,0-.19-.03-.28-.08-.22-.15-.29-.45-.15-.67,.04-.08,.79-1.93-3.56-7.31-2.91-3.59-5.86-5.79-8.23-7.56-1.55-1.16-2.78-2.08-3.5-3.04-.17-.22-.12-.53,.1-.7,.22-.17,.53-.12,.7,.1,.63,.84,1.81,1.72,3.3,2.83,2.29,1.71,5.43,4.05,8.41,7.73,4.95,6.12,3.78,8.25,3.63,8.47-.1,.14-.25,.22-.42,.22Z"></path>
      <path d="M454.3,263.59c-3.19,0-6.41-.46-9.34-1.49-4.81-1.69-11.75-4.61-16.72-6.76-.25-.11-.37-.4-.26-.66,.11-.25,.4-.37,.66-.26,4.96,2.14,11.88,5.05,16.66,6.74,9.23,3.26,22.04,.44,26.05-4.15,.18-.21,.5-.23,.71-.05,.21,.18,.23,.5,.05,.71-2.98,3.4-10.29,5.92-17.79,5.92Z"></path>
      <path d="M421.7,252.4c-.07,0-.13-.01-.2-.04-3.12-1.35-5.18-2.29-5.18-2.29-.25-.11-.36-.41-.25-.66,.11-.25,.41-.36,.66-.25,0,0,2.06,.94,5.16,2.28,.25,.11,.37,.4,.26,.66-.08,.19-.27,.3-.46,.3Z"></path>
      <path d="M441.92,273.51c-5.45,0-9.25-2.11-13.95-4.71-2.83-1.57-6.05-3.35-10.2-4.99-.26-.1-.38-.39-.28-.65s.39-.38,.65-.28c4.21,1.67,7.45,3.46,10.31,5.05,5.27,2.92,9.09,5.03,15.29,4.5,.28-.03,.52,.18,.54,.46,.02,.28-.18,.52-.46,.54-.66,.06-1.3,.08-1.91,.08Z"></path>
      <path d="M453.7,271h-.13c-.28,0-.5-.22-.5-.5s.22-.5,.5-.5h.04c17.55-6.42,19.92-10.83,19.95-10.88,.12-.25,.42-.35,.67-.22,.25,.12,.35,.42,.22,.67-.1,.19-2.58,4.83-20.58,11.4-.05,.02-.11,.03-.17,.03Z"></path>
      <path d="M468.72,271.69c-.13,0-.26-.05-.36-.16-.19-.2-.18-.52,.02-.71l6.14-5.85c.2-.19,.52-.18,.71,.02,.19,.2,.18,.52-.02,.71l-6.14,5.85c-.1,.09-.22,.14-.34,.14Z"></path>
      <path d="M484.02,227.24c-.07,0-.14-.01-.21-.05-1.41-.65-13.79-6.32-14.65-6.9-.23-.15-.29-.46-.14-.69,.15-.23,.46-.29,.69-.14,.6,.4,9.01,4.3,14.52,6.82,.25,.12,.36,.41,.25,.66-.08,.18-.27,.29-.46,.29Z"></path>
      <path d="M392.5,231.81c-.08,0-.16-.02-.23-.06-.24-.13-.34-.43-.21-.68,.22-.42,5.49-10.38,7.24-12.13,.2-.2,.51-.2,.71,0s.2,.51,0,.71c-1.31,1.31-5.19,8.35-7.06,11.89-.09,.17-.26,.27-.44,.27Z"></path>
      <g>
        <path d="M421.23,164.07v15.4c0,8.08,7.33,22.01,12.83,29.34,5.5,7.33,8.08,9.15,8.08,9.15,0,0,8.06-17.6,10.3-23.11s4.04-10.3,4.04-16.14-2.56-16.87-2.56-16.87c-5.18,2.34-10.82,3.47-16.51,3.31-5.63-.23-11.21-1.21-16.58-2.92l.4,1.84Z" fill="#f1f2f2"></path>
        <path d="M442.14,218.46c-.1,0-.2-.03-.29-.09-.11-.08-2.7-1.95-8.19-9.26-5.22-6.95-12.93-21.18-12.93-29.64v-15.34l-.39-1.79c-.04-.17,.02-.36,.15-.48,.13-.12,.32-.16,.49-.11,5.33,1.7,10.86,2.67,16.44,2.89,5.57,.17,11.2-.96,16.28-3.26,.14-.06,.29-.06,.43,0,.13,.07,.23,.19,.27,.33,.11,.45,2.58,11.15,2.58,16.99s-1.77,10.63-4.07,16.33c-2.21,5.45-10.22,22.95-10.3,23.13-.06,.14-.18,.24-.32,.27-.04,.01-.09,.02-.13,.02Zm-20.64-55.5l.22,1s.01,.07,.01,.11v15.4c0,8.23,7.6,22.2,12.73,29.04,4.06,5.41,6.52,7.8,7.49,8.65,1.42-3.11,8.05-17.63,10.02-22.5,2.34-5.78,4-10.31,4-15.95,0-4.95-1.89-13.81-2.42-16.17-5.07,2.19-10.65,3.26-16.17,3.1-5.39-.22-10.73-1.12-15.89-2.68Z"></path>
      </g>
      <path d="M422.03,167.33l3.84,14.23,3.25-1.77c1.02,1.23,2.1,2.41,3.24,3.53,2.07,2.07,5.9,5.02,5.9,5.02l1.14,4.72,3.24-8.01,5.9-2.65,2.95,3.83,4.44-13.28-3.84-5.61-32.17-4.43,2.1,4.4Z"></path>
      <path d="M425.63,187.31s-.06,0-.08,0c-.27-.05-.46-.3-.41-.58,.82-4.94,.82-9.94,0-14.88-.05-.27,.14-.53,.41-.58,.27-.05,.53,.14,.58,.41,.84,5.05,.84,10.16,0,15.21-.04,.24-.25,.42-.49,.42Z"></path>
      <path d="M452.03,190.97c-.26,0-.48-.2-.5-.46-.36-4.32-1.81-11.24-1.82-11.31-.06-.27,.12-.54,.39-.59,.27-.06,.54,.12,.59,.39,.01,.07,1.48,7.05,1.84,11.43,.02,.28-.18,.52-.46,.54-.01,0-.03,0-.04,0Z"></path>
      <path d="M439.2,196.48c-.28,0-.5-.22-.5-.5v-13.57c0-.28,.22-.5,.5-.5s.5,.22,.5,.5v13.57c0,.28-.22,.5-.5,.5Z"></path>
      <path d="M440.66,203.08s-.02,0-.03,0c-.18,0-.34-.11-.42-.27-.86-1.69-1.94-3.25-3.22-4.65-1.35-1.38-6.49-.89-8.36-.59-.27,.05-.53-.14-.57-.41-.04-.27,.14-.53,.41-.57,.74-.12,7.28-1.13,9.25,.89,1.15,1.26,2.15,2.65,2.98,4.13,1.33-2,3.3-4.66,4.36-4.66h3.67c.28,0,.5,.22,.5,.5s-.22,.5-.5,.5h-3.67c-.56,.11-2.51,2.62-3.98,4.91-.09,.14-.25,.23-.42,.23Z"></path>
      <g>
        <path d="M410.59,129.96s-4.77-7.71-6.92-2.57c-2.15,5.14,5.87,15.41,5.87,15.41,0,0,1.78-7.33,1.05-12.83Z" fill="#f1f2f2"></path>
        <path d="M409.54,143.3c-.15,0-.3-.07-.39-.19-.33-.43-8.17-10.56-5.94-15.91,.54-1.29,1.31-1.99,2.28-2.06,2.51-.2,5.23,4.08,5.53,4.57,.04,.06,.06,.13,.07,.2,.74,5.53-.99,12.72-1.06,13.02-.05,.19-.19,.33-.38,.37-.03,0-.07,.01-.1,.01Zm-3.88-17.17s-.07,0-.1,0c-.56,.04-1.05,.53-1.43,1.45-1.66,3.97,3.32,11.48,5.15,14.03,.45-2.2,1.34-7.37,.82-11.48-.77-1.21-2.88-4.01-4.45-4.01Z"></path>
      </g>
      <g>
        <path d="M463.77,126.66s4.04-7.33,6.98-2.2c2.94,5.14-2.21,13.93-2.21,13.93,0,0-5.5-10.27-4.77-11.74Z" fill="#f1f2f2"></path>
        <path d="M468.54,138.89h0c-.18,0-.35-.1-.43-.26-1.69-3.16-5.54-10.67-4.78-12.2,0,0,0-.01,0-.02,.1-.17,2.38-4.26,4.97-4.28,1.07,0,2.08,.69,2.88,2.08,3.05,5.33-1.99,14.06-2.21,14.43-.09,.15-.25,.25-.43,.25Zm-4.32-12.01c-.31,.81,1.93,5.89,4.33,10.45,1.15-2.25,4.03-8.68,1.77-12.62-.6-1.05-1.29-1.6-2-1.57-1.67,.01-3.51,2.69-4.1,3.75Z"></path>
      </g>
      <g>
        <path d="M463.77,123.72s-1.14-15.03-3.29-22.74c-2.15-7.71-15.04-11.37-30.45-9.15-15.41,2.22-20.17,11.36-20.17,18.69s1.46,19.45,.37,24.2-3.67,11-.37,15.04c1.76,2.32,4.43,3.79,7.33,4.04,0,0,0,11,3.31,12.83,3.31,1.83,7.33,6.23,9.89,10.64,2.56,4.4,7.34,5.87,15.04,3.67,7.7-2.2,9.91-5.87,11.74-9.54s3.67-4.04,4.04-9.91,.37-10.64,.37-10.64c0,0,5.5-1.46,6.97-6.6,1.46-5.14,2.21-8.43,.37-11.37-1.84-2.94-5.14-5.87-5.14-9.17Z" fill="#fff"></path>
        <path d="M439.05,182.47c-4.17,0-7.17-1.64-9.09-4.94-2.57-4.41-6.56-8.71-9.7-10.45-3.18-1.76-3.53-10.52-3.56-12.82-2.87-.37-5.48-1.87-7.23-4.19-2.9-3.54-1.55-8.54-.37-12.95,.23-.87,.46-1.71,.64-2.51,.69-2.99,.34-9.06,0-14.93-.19-3.36-.38-6.53-.38-9.16,0-3.8,1.49-16.43,20.6-19.19,16.05-2.31,28.8,1.6,31,9.51,2.14,7.67,3.3,22.69,3.31,22.84,0,.01,0,.03,0,.04,0,2.18,1.62,4.28,3.18,6.31,.65,.85,1.33,1.73,1.88,2.6,1.95,3.12,1.19,6.53-.31,11.77-1.32,4.62-5.64,6.39-6.95,6.83,0,1.23-.06,5.41-.37,10.3-.26,4.23-1.3,5.74-2.5,7.49-.52,.75-1.05,1.53-1.59,2.61-1.95,3.91-4.33,7.6-12.05,9.8-2.43,.69-4.6,1.04-6.52,1.04Zm-.42-90.78c-2.71,0-5.57,.21-8.53,.63-18.31,2.64-19.74,14.59-19.74,18.2,0,2.6,.18,5.76,.38,9.11,.34,5.94,.7,12.08-.02,15.21-.19,.81-.42,1.66-.65,2.54-1.12,4.18-2.4,8.92,.19,12.07,1.69,2.22,4.23,3.62,6.99,3.86,.26,.02,.46,.24,.46,.5,0,2.98,.55,11.01,3.05,12.4,3.29,1.82,7.44,6.27,10.08,10.82,2.54,4.37,7.28,5.5,14.47,3.44,7.33-2.09,9.51-5.44,11.43-9.28,.57-1.14,1.15-1.99,1.66-2.73,1.16-1.69,2.08-3.03,2.33-6.98,.36-5.78,.37-10.56,.37-10.61,0-.23,.15-.42,.37-.48,.05-.01,5.25-1.46,6.61-6.25,1.42-4.98,2.16-8.2,.42-10.97-.52-.83-1.15-1.65-1.82-2.52-1.66-2.16-3.38-4.39-3.39-6.9-.05-.6-1.2-15.17-3.28-22.63-1.64-5.88-10.13-9.42-21.36-9.42Z"></path>
      </g>
      <g>
        <path d="M431.5,126.66c0,2.84-2.3,5.14-5.14,5.14-2.84,0-5.14-2.3-5.14-5.14,0-2.84,2.3-5.14,5.14-5.14h0c2.84,0,5.14,2.3,5.14,5.14Z" fill="#14af6c"></path>
        <path d="M426.36,132.29c-3.11,0-5.64-2.53-5.64-5.64s2.53-5.64,5.64-5.64,5.64,2.53,5.64,5.64-2.53,5.64-5.64,5.64Zm0-10.27c-2.56,0-4.64,2.08-4.64,4.64s2.08,4.64,4.64,4.64,4.64-2.08,4.64-4.64-2.08-4.64-4.64-4.64Z"></path>
      </g>
      <g>
        <circle cx="450.57" cy="126.66" r="7.33" fill="#14af6c"></circle>
        <path d="M450.57,134.49c-4.32,0-7.83-3.51-7.83-7.83s3.51-7.83,7.83-7.83,7.83,3.51,7.83,7.83-3.51,7.83-7.83,7.83Zm0-14.66c-3.77,0-6.83,3.06-6.83,6.83s3.06,6.83,6.83,6.83,6.83-3.06,6.83-6.83-3.06-6.83-6.83-6.83Z"></path>
      </g>
      <path d="M437.73,133.99s-5.14,5.5-3.31,6.98,2.94-.38,3.31-6.98Z"></path>
      <path d="M439.91,133.99s5.12,5.5,3.29,6.98-2.93-.38-3.29-6.98Z"></path>
      <path d="M424.03,140.75c-1.34,0-2.8-.27-4.4-.8-.26-.09-.4-.37-.32-.63,.09-.26,.37-.4,.63-.32,3.34,1.12,6.04,.98,8.04-.42,3.57-2.5,3.77-8.22,3.77-8.27,0-.28,.28-.48,.51-.49,.28,0,.49,.24,.49,.51,0,.26-.22,6.28-4.2,9.06-1.28,.9-2.8,1.34-4.53,1.34Z"></path>
      <path d="M455.34,140.67c-9.07,0-11.82-8.27-11.85-8.35-.08-.26,.06-.54,.32-.63,.26-.09,.54,.06,.63,.32,.1,.31,2.57,7.66,10.89,7.66,.28,0,.5,.22,.5,.5s-.22,.5-.5,.5Z"></path>
      <path d="M423.42,147.33c-.23,0-.43-.16-.49-.39-.06-.27,.11-.54,.38-.6,7.62-1.74,8.05-8.28,8.05-8.35,.01-.28,.23-.5,.53-.47,.28,.01,.49,.25,.47,.53,0,.07-.48,7.37-8.83,9.27-.04,0-.08,.01-.11,.01Z"></path>
      <path d="M460.45,118.73c-.16,0-.31-.07-.41-.21-1.24-1.78-3.08-3.01-5.2-3.47-2.73-.55-5.11,.66-7.21,1.73-.56,.29-1.11,.56-1.64,.8-1.35,.77-3.09,.77-4.49-.02-.24-.14-.33-.44-.19-.68,.14-.24,.44-.33,.68-.19,1.09,.62,2.45,.62,3.55,0,.56-.25,1.08-.52,1.63-.8,2.24-1.14,4.79-2.44,7.86-1.82,2.37,.52,4.43,1.89,5.81,3.88,.16,.23,.1,.54-.12,.7-.09,.06-.19,.09-.29,.09Z"></path>
      <path d="M439.2,118.73c-.09,0-.18-.02-.27-.08-3.19-2-2.46-6.56-2.42-6.75,.05-.27,.31-.46,.58-.41,.27,.05,.46,.3,.41,.58,0,.04-.65,4.1,1.97,5.74,.23,.15,.3,.46,.16,.69-.1,.15-.26,.23-.42,.23Z"></path>
      <path d="M454.05,137.46c-.13,0-.2,0-.21,0-.28-.02-.48-.25-.47-.53,.02-.27,.26-.48,.53-.47,.22,.01,5.41,.26,6.07-4.7,.04-.27,.29-.47,.56-.43,.27,.04,.47,.29,.43,.56-.7,5.29-5.82,5.57-6.92,5.57Z"></path>
      <path d="M425.43,136.58c-5.31,0-6.86-4.2-6.88-4.25-.09-.26,.04-.54,.3-.64,.26-.09,.54,.04,.64,.3,.07,.19,1.77,4.7,8.23,3.33,.27-.06,.54,.12,.59,.39,.06,.27-.12,.54-.39,.59-.92,.19-1.75,.28-2.5,.28Z"></path>
      <path d="M427.83,170.08c-.2,0-.39-.12-.47-.33-.71-1.9-1.86-12.2-1.86-14.85,0-1.44-4.68-2.73-8.01-3.18-.27-.04-.47-.29-.43-.56,.04-.27,.29-.46,.56-.43,1.48,.2,8.87,1.35,8.87,4.17,0,2.54,1.14,12.72,1.8,14.5,.1,.26-.04,.55-.29,.64-.06,.02-.12,.03-.17,.03Z"></path>
      <path d="M428.56,159.67s2.57-5.5,11.37-6.6c8.8-1.1,13.58,6.23,11.74,7.7-1.84,1.46-3.29-3.31-10.64-1.14-7.34,2.16-14.3,4.45-12.47,.05Z"></path>
      <path d="M455.38,171.54c-.05,0-.1,0-.15-.02-.26-.08-.41-.37-.32-.63,.61-1.92,.02-5.38-.5-8.43-.34-2.01-.67-3.92-.67-5.36,0-4.13,6.27-6.73,7.83-6.73,.28,0,.5,.22,.5,.5s-.22,.5-.5,.5c-1.38,0-6.83,2.51-6.83,5.73,0,1.36,.32,3.22,.65,5.19,.57,3.32,1.15,6.75,.47,8.9-.07,.21-.26,.35-.48,.35Z"></path>
      <path d="M456.44,148.09s-.03,0-.05,0c-8.29-.78-11.66-10.23-11.8-10.63-.09-.26,.05-.55,.31-.64,.26-.09,.55,.05,.64,.31,.03,.09,3.3,9.25,10.94,9.96,.28,.03,.48,.27,.45,.54-.02,.26-.24,.45-.5,.45Z"></path>
      <path d="M415.36,124.22c-.16,0-.32-.08-.42-.22-.15-.23-.09-.54,.14-.69,3.08-2.06,6.47-3.56,10.06-4.46,2.2-.55,3.98-.46,5.4-.38,2.43,.13,3.34,.18,3.75-2.87,.04-.27,.29-.46,.56-.43,.27,.04,.47,.29,.43,.56-.53,3.97-2.32,3.87-4.79,3.74-1.36-.07-3.06-.16-5.11,.35-3.49,.87-6.77,2.32-9.75,4.32-.09,.06-.18,.08-.28,.08Z"></path>
      <path d="M427.1,110.28c-.2,0-.38-.12-.46-.31-.11-.25,.01-.55,.27-.65,3.09-1.3,6.34-2.18,9.67-2.61,4.39-.37,9.17-.37,9.22-.37,.28,0,.5,.22,.5,.5s-.22,.5-.5,.5c-.05,0-4.79,0-9.11,.36-3.21,.42-6.38,1.27-9.39,2.54-.06,.03-.13,.04-.19,.04Z"></path>
      <path d="M439.93,104.42s-.09,0-.13-.02c-3.9-1.06-11.48-.36-11.56-.35-.28,.03-.52-.18-.54-.45-.03-.27,.18-.52,.45-.54,.32-.03,7.84-.73,11.92,.38,.27,.07,.42,.35,.35,.61-.06,.22-.26,.37-.48,.37Z"></path>
      <g>
        <path d="M368.78,191.95s-5.72,13.62-11.44,20.49c-5.72,6.86-10.01,12.01-8.58,16.01,1.43,4,5.72,13.15,8.29,16.01s6.29,1.72,7.72,1.14c1.43-.57,5.15-3.43,7.72-4s9.44-5.43,9.44-9.44-2.57-14.01-2-16.59c.57-2.57,11.72-26.6,11.72-26.6l-20.02-2.29-2.86,5.25Z" fill="#fff"></path>
        <path d="M361.34,246.82c-1.55,0-3.27-.46-4.66-2.01-2.65-2.94-7-12.28-8.39-16.18-1.53-4.27,2.75-9.4,8.66-16.5,5.61-6.73,11.31-20.23,11.36-20.36,0-.02,.01-.03,.02-.05l2.86-5.25c.1-.18,.29-.28,.5-.26l20.02,2.29c.16,.02,.3,.11,.38,.25s.08,.31,.02,.46c-3.85,8.29-11.25,24.5-11.69,26.49-.29,1.31,.34,4.98,.96,8.52,.52,3,1.06,6.1,1.06,7.96,0,4.31-7.06,9.31-9.83,9.93-1.58,.35-3.65,1.63-5.32,2.67-.95,.59-1.77,1.09-2.32,1.31-.77,.31-2.12,.74-3.62,.74Zm7.89-54.65c-.28,.65-5.92,13.88-11.51,20.59s-9.83,11.79-8.49,15.53c1.37,3.84,5.63,13,8.19,15.85,2.23,2.48,5.45,1.7,7.16,1.01,.47-.19,1.25-.67,2.16-1.24,1.73-1.07,3.89-2.41,5.63-2.79,2.53-.56,9.05-5.31,9.05-8.95,0-1.77-.53-4.83-1.04-7.79-.66-3.81-1.28-7.4-.95-8.91,.53-2.39,9.67-22.18,11.47-26.07l-19-2.17-2.69,4.93Z"></path>
      </g>
      <path d="M373.06,218.94c-.07,0-.15-.02-.22-.05-.25-.12-.35-.42-.23-.67l8.32-16.99c.12-.25,.42-.35,.67-.23,.25,.12,.35,.42,.23,.67l-8.32,16.99c-.09,.18-.26,.28-.45,.28Z"></path>
      <path d="M365.34,243.54c-.06,0-.12-.01-.19-.04-.26-.1-.38-.39-.28-.65l4.58-11.44c.1-.26,.4-.38,.65-.28,.26,.1,.38,.39,.28,.65l-4.58,11.44c-.08,.2-.27,.31-.46,.31Z"></path>
      <g>
        <path d="M510.05,191.95s5.72,13.64,11.44,20.5c5.72,6.86,10.01,12.01,8.58,16.01s-5.72,13.15-8.29,16.01c-2.57,2.86-6.29,1.72-7.72,1.14s-5.15-3.43-7.72-4-9.44-5.43-9.44-9.44,2.57-14.01,2-16.59c-.57-2.57-11.72-26.61-11.72-26.61l20.02-2.29,2.86,5.25Z" fill="#fff"></path>
        <path d="M517.49,246.83c-1.5,0-2.84-.43-3.62-.74-.55-.22-1.37-.73-2.32-1.31-1.67-1.03-3.75-2.32-5.32-2.67-2.77-.62-9.83-5.62-9.83-9.93,0-1.85,.54-4.96,1.06-7.96,.61-3.54,1.25-7.21,.96-8.52-.44-1.99-7.84-18.21-11.69-26.5-.07-.15-.06-.31,.02-.46s.22-.23,.38-.25l20.02-2.29c.21-.03,.4,.08,.5,.26l2.86,5.25s.02,.03,.02,.05c.06,.14,5.76,13.65,11.36,20.37,5.92,7.1,10.19,12.23,8.67,16.5-1.39,3.9-5.75,13.24-8.39,16.18-1.39,1.55-3.11,2.02-4.66,2.02Zm-29.57-57.42c1.8,3.89,10.94,23.69,11.47,26.08,.33,1.51-.29,5.1-.95,8.91-.51,2.96-1.04,6.02-1.04,7.79,0,3.64,6.51,8.39,9.05,8.95,1.74,.39,3.9,1.72,5.63,2.79,.91,.56,1.7,1.05,2.17,1.24,1.72,.69,4.93,1.47,7.16-1.01,2.56-2.85,6.82-12.01,8.19-15.85,1.33-3.74-3-8.94-8.49-15.53-5.59-6.71-11.23-19.95-11.51-20.6l-2.69-4.93-19,2.17Z"></path>
      </g>
      <path d="M505.76,218.94c-.19,0-.36-.1-.45-.28l-8.32-16.99c-.12-.25-.02-.55,.23-.67,.25-.12,.55-.02,.67,.23l8.32,16.99c.12,.25,.02,.55-.23,.67-.07,.03-.15,.05-.22,.05Z"></path>
      <path d="M513.48,243.54c-.2,0-.39-.12-.46-.31l-4.58-11.44c-.1-.26,.02-.55,.28-.65,.25-.1,.55,.02,.65,.28l4.58,11.44c.1,.26-.02,.55-.28,.65-.06,.02-.12,.04-.19,.04Z"></path>
      <g>
        <path d="M382.85,171.27s-3.32-3.69-6.09-6.45-6.63-.93-7.18-.74,2.21,7.74,2.77,8.11-1.29,7.01-1.29,8.11,.92,2.59,0,2.59-4.38-1.05-5.72-1.29-3.32,1.48-4.05,1.84,2.02,5.34,2.02,5.34c0,0,6.45,7.93,8.29,9.59,1.84,1.66,7.2,4.79,9.77,3.13s4.79-8.11,7.93-8.48c3.13-.37,6.27,.74,9.22-.92,2.95-1.66,7-7.56,7-7.56,0,0-1.48,5.89-1.84,6.86-.18,1.44,.66,2.82,2.02,3.32,1.29,.18,4.24,1.48,4.98,.55s2.95-11.05,4.24-14.37c1.29-3.32,.18-6.86-2.95-7.01s-8.66,.18-9.77,.18-4.06,0-7.56-3.87c-3.5-3.87-7.73-8.48-7.73-8.48l-6.09,.18,2.02,9.36Z" fill="#fff"></path>
        <path d="M379.55,202.46c-3.06,0-6.97-2.56-8.28-3.74-1.85-1.67-8.08-9.32-8.35-9.64-.8-1.43-2.52-4.7-2.22-5.67,.06-.19,.19-.35,.36-.43,.17-.08,.41-.25,.7-.44,1.04-.7,2.46-1.66,3.66-1.44,.55,.1,1.43,.33,2.37,.57,1.17,.3,2.6,.67,3.17,.71-.02-.18-.1-.48-.16-.7-.12-.43-.25-.92-.25-1.38s.22-1.48,.58-3.12c.34-1.55,.91-4.12,.81-4.69-.9-1.06-3.05-7.44-2.93-8.35,.05-.38,.3-.5,.4-.54l.17-.06c3.15-1.22,5.68-.91,7.52,.93,1.7,1.69,3.62,3.76,4.85,5.09l-1.63-7.54c-.03-.15,0-.3,.09-.41,.09-.12,.23-.19,.38-.19l6.09-.18c.17,0,.29,.06,.38,.16,0,0,4.23,4.61,7.74,8.48,3.35,3.7,6.14,3.7,7.19,3.7,.31,0,.99-.03,1.86-.06,2.26-.09,5.67-.23,7.93-.12,1.32,.06,2.44,.69,3.14,1.77,.99,1.52,1.08,3.79,.25,5.92-.61,1.57-1.43,4.67-2.22,7.67-1.06,4-1.67,6.29-2.1,6.83-.73,.92-2.51,.42-4.07-.03-.53-.15-1.03-.29-1.36-.34-.03,0-.07-.01-.1-.03-1.59-.58-2.56-2.17-2.35-3.85,0-.04,.01-.08,.03-.11,.19-.5,.71-2.47,1.19-4.32-1.47,1.9-3.75,4.57-5.64,5.63-2.05,1.15-4.17,1.05-6.22,.95-1.05-.05-2.14-.1-3.19,.02-1.6,.19-3.05,2.37-4.45,4.48-1.08,1.63-2.11,3.18-3.27,3.92-.61,.39-1.32,.55-2.1,.55Zm-17.89-18.67c.04,.65,1.07,2.9,2.09,4.73,.01,0,6.4,7.84,8.19,9.46,1.97,1.78,7,4.48,9.16,3.09,.98-.63,1.95-2.09,2.98-3.64,1.53-2.3,3.1-4.68,5.16-4.92,1.13-.13,2.26-.08,3.35-.03,2,.09,3.88,.18,5.68-.83,2.82-1.58,6.79-7.35,6.83-7.41,.14-.2,.4-.27,.62-.17,.22,.1,.34,.34,.28,.58-.06,.24-1.43,5.72-1.84,6.86-.12,1.18,.55,2.29,1.66,2.71,.4,.06,.9,.21,1.44,.36,.88,.25,2.7,.77,3.02,.37,.32-.42,1.2-3.77,1.91-6.46,.8-3.03,1.62-6.16,2.26-7.78,.72-1.84,.65-3.76-.16-5.01-.53-.82-1.34-1.27-2.35-1.32-2.21-.11-5.6,.03-7.84,.12-.89,.04-1.58,.06-1.9,.06-1.17,0-4.28,0-7.93-4.03-3.1-3.43-6.78-7.44-7.58-8.3l-5.26,.16,1.9,8.77c.05,.22-.06,.45-.26,.55-.2,.1-.45,.06-.6-.11-.03-.04-3.34-3.72-6.07-6.43-1.52-1.52-3.68-1.76-6.4-.73,.13,1.32,2.18,6.83,2.66,7.36,.49,.31,.41,1.21-.56,5.59-.27,1.25-.56,2.54-.56,2.9,0,.33,.11,.74,.21,1.13,.18,.66,.33,1.23,.01,1.64-.11,.15-.33,.32-.72,.32-.57,0-1.76-.3-3.51-.75-.91-.24-1.78-.46-2.29-.55-.81-.15-2.13,.75-2.93,1.29-.25,.17-.48,.32-.66,.43Zm10.35-11.24s.04,.03,.06,.05c-.02-.01-.04-.03-.06-.05Z"></path>
      </g>
      <g>
        <path d="M387.12,153.8s4.4,17.97,4.4,20.59-8.81,3.31-8.81,3.31c0,0-2.56-11.74-3.31-14.31s-3.66-11.37,.38-12.83,5.87-1.16,7.33,3.25Z" fill="#fff"></path>
        <path d="M382.71,178.2c-.23,0-.44-.16-.49-.39-.03-.12-2.57-11.75-3.3-14.28l-.17-.56c-1.01-3.4-3.37-11.35,.85-12.88,2.12-.77,3.83-1.14,5.23-.47,1.16,.56,2.01,1.81,2.75,4.03,0,.01,0,.03,.01,.04,.18,.74,4.42,18.06,4.42,20.71,0,2.93-7.72,3.68-9.27,3.8-.01,0-.03,0-.04,0Zm.49-27.93c-.8,0-1.84,.25-3.24,.76-3.34,1.21-1.08,8.8-.23,11.66l.17,.57c.67,2.31,2.75,11.75,3.22,13.91,3.42-.32,7.91-1.34,7.91-2.77,0-2.02-2.87-14.25-4.38-20.45-.64-1.93-1.33-2.99-2.23-3.42-.34-.17-.74-.25-1.21-.25Z"></path>
      </g>
      <g>
        <path d="M373.54,163.71c-1.83,0-8.01,.73-9.15,4.39-1.14,3.66,4.04,9.54,4.4,13.94s0,8.43,4.76,9.91c4.76,1.48,6.98,.73,5.87-3.31s-4.35-21.64-4.35-21.64" fill="#fff"></path>
        <path d="M377.22,193.15c-1,0-2.26-.24-3.82-.72-4.53-1.4-4.76-5-5-8.81-.03-.5-.06-1.01-.11-1.53-.15-1.84-1.23-4.03-2.27-6.16-1.45-2.95-2.81-5.73-2.11-7.98,1.22-3.89,7.36-4.74,9.63-4.74,.28,0,.5,.22,.5,.5s-.22,.5-.5,.5c-1.57,0-7.63,.69-8.67,4.04-.58,1.86,.76,4.6,2.06,7.24,1.08,2.21,2.2,4.49,2.37,6.51,.04,.52,.08,1.04,.11,1.55,.24,3.76,.43,6.72,4.3,7.92,2.67,.83,4.38,.9,5.08,.22,.5-.49,.55-1.47,.16-2.92-1.1-4.01-4.22-20.96-4.36-21.68-.05-.27,.13-.53,.4-.58,.27-.05,.53,.13,.58,.4,.03,.18,3.25,17.63,4.34,21.6,.51,1.86,.37,3.13-.42,3.9-.51,.49-1.25,.74-2.26,.74Z"></path>
      </g>
      <g>
        <path d="M361.44,193.41c-.93,2.01-2.16,3.87-3.66,5.5-2.21,2.2-3.31,3.29-1.84,6.23s2.94,8.8,5.14,6.23,3.31-2.2,2.21-5.14c-.64-1.66-1.14-3.38-1.48-5.14l4.04-4.77-4.4-2.93Z" fill="#fff"></path>
        <path d="M360,212.52c-.08,0-.15,0-.23-.02-1.41-.23-2.34-2.5-3.32-4.91-.33-.82-.65-1.59-.96-2.22-1.63-3.27-.29-4.6,1.94-6.81,1.45-1.58,2.65-3.39,3.56-5.36,.06-.13,.18-.23,.32-.27,.14-.04,.29-.02,.41,.06l4.4,2.93c.12,.08,.2,.21,.22,.35,.02,.14-.02,.28-.11,.39l-3.88,4.59c.33,1.64,.8,3.26,1.4,4.82,.89,2.39,.42,2.97-.85,4.16-.4,.37-.89,.83-1.44,1.48-.46,.54-.95,.81-1.45,.81Zm1.64-18.37c-.92,1.86-2.09,3.58-3.5,5.1-2.24,2.23-3.07,3.05-1.76,5.67,.33,.67,.65,1.45,.99,2.29,.72,1.76,1.7,4.16,2.55,4.3,.22,.04,.47-.12,.76-.45,.59-.69,1.11-1.17,1.52-1.56,1.1-1.03,1.29-1.22,.6-3.07-.65-1.68-1.16-3.44-1.5-5.22-.03-.15,.01-.3,.11-.42l3.68-4.34-3.46-2.3Z"></path>
      </g>
      <g>
        <path d="M365.34,181.56s-9.04,3.79-8.29,5.26,3.29,4.39,4.39,6.6,2.94,7.33,5.14,8.8,8.08-2.2,6.6-4.03c-1.48-1.83-3.29-3.31-4.39-6.23s-2.57-7.71-2.57-9.15" fill="#fff"></path>
        <path d="M367.88,203.07c-.59,0-1.14-.13-1.59-.43-1.84-1.23-3.38-4.69-4.5-7.22-.3-.68-.57-1.29-.81-1.77-.59-1.18-1.64-2.62-2.56-3.88-.79-1.08-1.48-2.02-1.83-2.72-.08-.17-.16-.44-.03-.78,.65-1.77,7.26-4.62,8.57-5.17,.26-.11,.55,.01,.65,.27,.11,.25-.01,.55-.27,.65-4.28,1.79-7.96,3.91-8.03,4.62,.3,.58,1,1.53,1.73,2.53,.95,1.3,2.02,2.77,2.65,4.03,.24,.49,.52,1.11,.83,1.81,1.07,2.42,2.54,5.73,4.14,6.8,1.19,.79,4.14-.4,5.48-1.86,.32-.35,.8-1,.45-1.43-.36-.44-.74-.87-1.12-1.3-1.22-1.37-2.49-2.78-3.35-5.08-1.09-2.91-2.61-7.77-2.61-9.33,0-.28,.22-.5,.5-.5s.5,.22,.5,.5c0,1.26,1.34,5.78,2.54,8.98,.79,2.12,2,3.46,3.16,4.76,.4,.44,.78,.88,1.15,1.33,.6,.74,.42,1.74-.49,2.73-1.12,1.22-3.36,2.45-5.18,2.45Z"></path>
      </g>
      <g>
        <path d="M502.83,171.27s3.32-3.69,6.09-6.45,6.63-.93,7.18-.74-2.21,7.74-2.77,8.11,1.29,7.01,1.29,8.11-.92,2.59,0,2.59,4.38-1.05,5.72-1.29,3.32,1.48,4.05,1.84-2.02,5.34-2.02,5.34c0,0-6.45,7.93-8.29,9.59s-7.2,4.79-9.77,3.13c-2.57-1.66-4.79-8.11-7.93-8.48-3.13-.37-6.27,.74-9.22-.92s-7-7.56-7-7.56c0,0,1.48,5.89,1.84,6.86,.18,1.44-.66,2.82-2.02,3.32-1.29,.18-4.24,1.48-4.98,.55s-2.95-11.05-4.24-14.37c-1.29-3.32-.18-6.86,2.95-7.01s8.66,.18,9.77,.18,4.05,0,7.56-3.87,7.73-8.48,7.73-8.48l6.09,.18-2.02,9.36Z" fill="#fff"></path>
        <path d="M506.13,202.46c-.77,0-1.49-.16-2.1-.55-1.16-.75-2.18-2.29-3.27-3.92-1.4-2.11-2.85-4.29-4.45-4.48-1.05-.12-2.14-.07-3.19-.02-2.05,.1-4.17,.2-6.22-.95-1.89-1.06-4.17-3.73-5.64-5.63,.48,1.86,1,3.83,1.19,4.32,.01,.04,.02,.08,.03,.11,.21,1.68-.76,3.27-2.35,3.85-.03,.01-.07,.02-.1,.03-.34,.05-.84,.19-1.36,.34-1.57,.44-3.35,.95-4.07,.03-.42-.54-1.04-2.83-2.1-6.83-.79-3-1.61-6.1-2.22-7.67-.83-2.13-.73-4.4,.25-5.92,.7-1.08,1.82-1.71,3.14-1.77,2.26-.11,5.67,.03,7.93,.12,.88,.04,1.55,.06,1.86,.06,1.05,0,3.83,0,7.19-3.7,3.51-3.87,7.73-8.48,7.73-8.48,.1-.11,.22-.16,.38-.16l6.09,.18c.15,0,.29,.07,.38,.19,.09,.12,.13,.27,.09,.41l-1.63,7.54c1.23-1.33,3.15-3.4,4.85-5.09,1.84-1.83,4.37-2.15,7.52-.93l.17,.06c.11,.04,.36,.16,.4,.54,.12,.91-2.03,7.29-2.93,8.35-.09,.57,.47,3.14,.81,4.69,.36,1.64,.58,2.67,.58,3.12s-.13,.95-.25,1.38c-.06,.21-.14,.51-.16,.69,.61-.05,2.02-.41,3.17-.71,.93-.24,1.81-.47,2.37-.57,1.21-.22,2.62,.74,3.66,1.44,.29,.19,.53,.36,.7,.44,.17,.08,.3,.24,.36,.43,.3,.98-1.41,4.24-2.17,5.6-.31,.4-6.55,8.05-8.4,9.72-1.31,1.18-5.22,3.74-8.28,3.74Zm-11.27-10.03c.52,0,1.05,.02,1.58,.08,2.06,.24,3.64,2.62,5.16,4.92,1.02,1.54,1.99,3,2.98,3.64,2.16,1.4,7.19-1.31,9.16-3.09,1.79-1.61,8.18-9.45,8.24-9.53,.97-1.77,2-4.02,2.04-4.66-.18-.1-.4-.26-.66-.43-.79-.54-2.12-1.43-2.93-1.29-.52,.09-1.38,.32-2.29,.55-1.75,.45-2.94,.75-3.51,.75-.39,0-.61-.18-.72-.32-.32-.41-.16-.98,.01-1.64,.1-.39,.21-.79,.21-1.13,0-.36-.28-1.65-.56-2.9-.96-4.38-1.04-5.28-.51-5.63,.44-.49,2.48-6,2.61-7.32-2.72-1.04-4.87-.79-6.4,.73-2.73,2.71-6.03,6.39-6.07,6.43-.15,.17-.4,.21-.6,.11-.2-.1-.31-.33-.26-.55l1.9-8.77-5.26-.16c-.79,.86-4.46,4.88-7.58,8.31-3.66,4.03-6.76,4.03-7.93,4.03-.32,0-1.01-.03-1.9-.06-2.24-.09-5.63-.23-7.84-.12-1.01,.05-1.82,.5-2.35,1.32-.81,1.25-.88,3.17-.16,5.01,.63,1.62,1.46,4.75,2.26,7.78,.71,2.69,1.59,6.04,1.92,6.46,.32,.4,2.14-.12,3.02-.37,.54-.15,1.04-.3,1.44-.36,1.11-.43,1.78-1.53,1.66-2.72-.4-1.14-1.78-6.62-1.84-6.86-.06-.23,.06-.48,.28-.58,.22-.1,.48-.03,.62,.17,.04,.06,4.02,5.83,6.83,7.41,1.8,1.01,3.69,.92,5.68,.83,.58-.03,1.17-.06,1.77-.06Zm18.8-19.88s-.04,.03-.06,.05c.02-.01,.04-.03,.06-.05Z"></path>
      </g>
      <g>
        <path d="M498.61,153.8s-4.4,17.97-4.4,20.59,8.81,3.31,8.81,3.31c0,0,2.56-11.74,3.29-14.31s3.67-11.37-.37-12.83c-4.04-1.46-5.91-1.16-7.33,3.25Z" fill="#fff"></path>
        <path d="M503.02,178.2s-.03,0-.04,0c-1.55-.12-9.27-.87-9.27-3.8,0-2.65,4.24-19.97,4.42-20.71,0-.01,0-.02,0-.03,.71-2.21,1.55-3.45,2.72-4.02,1.5-.73,3.41-.21,5.26,.46,4.19,1.52,1.86,9.43,.86,12.8l-.19,.64c-.72,2.53-3.26,14.16-3.29,14.28-.05,.23-.25,.39-.49,.39Zm-3.92-24.26c-1.52,6.2-4.39,18.43-4.39,20.45,0,1.43,4.49,2.45,7.91,2.77,.47-2.17,2.55-11.6,3.21-13.91l.19-.65c.84-2.84,3.06-10.38-.24-11.58-2.25-.81-3.54-.96-4.48-.5-.89,.44-1.59,1.52-2.2,3.41Z"></path>
      </g>
      <g>
        <path d="M513.79,163.49c1.84,0,6.42,.94,7.5,4.61s-4.04,9.54-4.4,13.94,0,8.43-4.77,9.91c-4.77,1.48-6.97,.73-5.87-3.31s4.4-21.64,4.4-21.64" fill="#fff"></path>
        <path d="M508.44,193.15c-1.01,0-1.74-.24-2.25-.73-.79-.77-.94-2.04-.43-3.9,1.08-3.97,4.36-21.43,4.4-21.6,.05-.27,.31-.45,.58-.4,.27,.05,.45,.31,.4,.58-.13,.72-3.32,17.67-4.41,21.68-.4,1.45-.34,2.44,.16,2.92,.7,.68,2.41,.6,5.08-.22,3.88-1.2,4.07-4.17,4.31-7.92,.03-.51,.07-1.02,.11-1.55,.17-2.03,1.28-4.33,2.36-6.55,1.28-2.63,2.6-5.35,2.06-7.21-1.02-3.47-5.52-4.25-7.02-4.25-.28,0-.5-.22-.5-.5s.22-.5,.5-.5c1.81,0,6.78,.89,7.98,4.96,.66,2.23-.69,5-2.12,7.93-1.04,2.14-2.11,4.34-2.27,6.19-.04,.52-.08,1.03-.11,1.53-.25,3.81-.48,7.41-5.01,8.81-1.56,.48-2.82,.72-3.82,.72Z"></path>
      </g>
      <g>
        <path d="M524.25,193.41c.93,2.01,2.16,3.87,3.66,5.5,2.21,2.2,3.31,3.29,1.84,6.23-1.46,2.94-2.94,8.8-5.14,6.23s-3.31-2.2-2.21-5.14c.64-1.67,1.13-3.39,1.48-5.14l-4.04-4.77,4.4-2.93Z" fill="#fff"></path>
        <path d="M525.68,212.52c-.5,0-.99-.27-1.45-.81-.56-.65-1.05-1.11-1.44-1.48-1.27-1.19-1.74-1.77-.85-4.15,.6-1.56,1.07-3.18,1.41-4.82l-3.88-4.59c-.09-.11-.13-.25-.11-.39,.02-.14,.1-.27,.22-.35l4.4-2.93c.12-.08,.27-.1,.41-.06,.14,.04,.26,.14,.32,.27,.91,1.97,2.11,3.78,3.57,5.37,2.21,2.19,3.55,3.53,1.92,6.8-.32,.63-.63,1.4-.96,2.22-.98,2.41-1.91,4.68-3.32,4.91-.08,.01-.15,.02-.23,.02Zm-5.1-16.07l3.68,4.34c.1,.12,.14,.27,.11,.42-.35,1.77-.85,3.53-1.5,5.22-.69,1.85-.5,2.04,.6,3.07,.41,.39,.93,.87,1.52,1.56,.29,.33,.53,.49,.76,.45,.85-.14,1.84-2.54,2.55-4.3,.34-.83,.66-1.62,1-2.29,1.31-2.62,.47-3.45-1.75-5.66-1.42-1.54-2.59-3.26-3.51-5.12l-3.46,2.3Z"></path>
      </g>
      <g>
        <path d="M520.35,181.56c3.63,.13,9.67,3.81,8.29,5.26-1.14,1.2-3.29,4.39-4.39,6.6s-2.94,7.33-5.14,8.8-8.08-2.2-6.6-4.03,3.29-3.31,4.39-6.23c1.1-2.93,2.21-5.71,2.21-7.16" fill="#fff"></path>
        <path d="M517.8,203.07c-1.82,0-4.07-1.23-5.18-2.45-.91-1-1.09-1.99-.49-2.73,.37-.46,.76-.89,1.15-1.33,1.16-1.3,2.37-2.64,3.16-4.76l.34-.91c.95-2.51,1.84-4.87,1.84-6.07,0-.28,.22-.5,.5-.5s.5,.22,.5,.5c0,1.38-.88,3.72-1.9,6.43l-.34,.9c-.86,2.29-2.13,3.71-3.35,5.08-.38,.43-.76,.85-1.12,1.3-.35,.43,.13,1.08,.45,1.43,1.34,1.47,4.29,2.66,5.48,1.86,1.6-1.06,3.07-4.38,4.14-6.8,.31-.7,.59-1.32,.83-1.81,1.07-2.16,3.25-5.42,4.48-6.72,.04-.04,.11-.12,.01-.36-.6-1.48-5.06-3.96-7.96-4.06-.28-.01-.49-.24-.48-.52,0-.28,.24-.51,.52-.48,3.09,.11,8.06,2.74,8.85,4.68,.22,.54,.15,1.04-.21,1.42-1.04,1.1-3.19,4.23-4.31,6.48-.24,.47-.51,1.09-.81,1.77-1.12,2.53-2.66,6-4.5,7.22-.45,.3-1,.43-1.59,.43Z"></path>
      </g>
    </g>
  </g>
  <g>
    <rect x="175.39" y="313.53" width="523.95" height="208.39" fill="#f1f2f2"></rect>
    <path d="M699.34,522.42H175.39c-.28,0-.5-.22-.5-.5v-208.39c0-.28,.22-.5,.5-.5H699.34c.28,0,.5,.22,.5,.5v208.39c0,.28-.22,.5-.5,.5Zm-523.45-1H698.84v-207.39H175.89v207.39Z"></path>
  </g>
  <rect x="175.39" y="315.66" width="523.95" height="8.42"></rect>
  <g>
    <rect x="357.28" y="332.79" width="160.16" height="179.11" fill="#fff"></rect>
    <path d="M517.44,512.4h-160.16c-.28,0-.5-.22-.5-.5v-179.11c0-.28,.22-.5,.5-.5h160.16c.28,0,.5,.22,.5,.5v179.11c0,.28-.22,.5-.5,.5Zm-159.66-1h159.16v-178.11h-159.16v178.11Z"></path>
  </g>
  <g>
    <rect x="363.93" y="340.22" width="146.86" height="164.23" fill="#f1f2f2"></rect>
    <path d="M510.79,504.95h-146.86c-.28,0-.5-.22-.5-.5v-164.23c0-.28,.22-.5,.5-.5h146.86c.28,0,.5,.22,.5,.5v164.23c0,.28-.22,.5-.5,.5Zm-146.36-1h145.86v-163.23h-145.86v163.23Z"></path>
  </g>
  <path d="M437.36,505.46c-.28,0-.5-.22-.5-.5v-164.55c0-.28,.22-.5,.5-.5s.5,.22,.5,.5v164.55c0,.28-.22,.5-.5,.5Z"></path>
  <g>
    <rect x="183.7" y="443.13" width="163.57" height="68.47" fill="#fff"></rect>
    <path d="M347.27,512.11H183.7c-.28,0-.5-.22-.5-.5v-68.47c0-.28,.22-.5,.5-.5h163.58c.28,0,.5,.22,.5,.5v68.47c0,.28-.22,.5-.5,.5Zm-163.08-1h162.58v-67.47H184.2v67.47Z"></path>
  </g>
  <g>
    <rect x="183.7" y="328.92" width="163.57" height="68.47" fill="#fff"></rect>
    <path d="M347.27,397.89H183.7c-.28,0-.5-.22-.5-.5v-68.47c0-.28,.22-.5,.5-.5h163.58c.28,0,.5,.22,.5,.5v68.47c0,.28-.22,.5-.5,.5Zm-163.08-1h162.58v-67.47H184.2v67.47Z"></path>
  </g>
  <g>
    <rect x="529.12" y="328.92" width="163.57" height="87.18" fill="#fff"></rect>
    <path d="M692.69,416.61h-163.57c-.28,0-.5-.22-.5-.5v-87.19c0-.28,.22-.5,.5-.5h163.57c.28,0,.5,.22,.5,.5v87.19c0,.28-.22,.5-.5,.5Zm-163.07-1h162.57v-86.19h-162.57v86.19Z"></path>
  </g>
  <g>
    <rect x="529.12" y="424.41" width="163.57" height="87.18" fill="#fff"></rect>
    <path d="M692.69,512.09h-163.57c-.28,0-.5-.22-.5-.5v-87.19c0-.28,.22-.5,.5-.5h163.57c.28,0,.5,.22,.5,.5v87.19c0,.28-.22,.5-.5,.5Zm-163.07-1h162.57v-86.19h-162.57v86.19Z"></path>
  </g>
  <rect x="587.21" y="463.03" width="47.39" height="9.96"></rect>
  <rect x="240.55" y="415.28" width="47.39" height="9.96"></rect>
  <g>
    <rect x="165.58" y="304.01" width="543.57" height="13.75" fill="#f1f2f2"></rect>
    <path d="M709.15,318.27H165.58c-.28,0-.5-.22-.5-.5v-13.75c0-.28,.22-.5,.5-.5H709.15c.28,0,.5,.22,.5,.5v13.75c0,.28-.22,.5-.5,.5Zm-543.07-1H708.65v-12.75H166.08v12.75Z"></path>
  </g>
  <g>
    <rect x="186.55" y="333.47" width="13.43" height="63.49" fill="#104fc1"></rect>
    <path d="M200.48,397.45h-14.43v-64.49h14.43v64.49Zm-13.43-1h12.43v-62.49h-12.43v62.49Z"></path>
  </g>
  <g>
    <rect x="201.01" y="333.47" width="13.43" height="63.49" fill="#f7ce21"></rect>
    <path d="M214.94,397.45h-14.43v-64.49h14.43v64.49Zm-13.43-1h12.43v-62.49h-12.43v62.49Z"></path>
  </g>
  <g>
    <rect x="318.5" y="333.47" width="13.43" height="63.49" fill="#14af6c"></rect>
    <path d="M332.43,397.45h-14.43v-64.49h14.43v64.49Zm-13.43-1h12.43v-62.49h-12.43v62.49Z"></path>
  </g>
  <g>
    <rect x="304.32" y="333.47" width="13.43" height="63.49" fill="#f7ce21"></rect>
    <path d="M318.25,397.45h-14.43v-64.49h14.43v64.49Zm-13.43-1h12.43v-62.49h-12.43v62.49Z"></path>
  </g>
  <g>
    <rect x="290.14" y="333.47" width="13.43" height="63.49" fill="#104fc1"></rect>
    <path d="M304.07,397.45h-14.43v-64.49h14.43v64.49Zm-13.43-1h12.43v-62.49h-12.43v62.49Z"></path>
  </g>
  <g>
    <rect x="275.96" y="333.47" width="13.43" height="63.49" fill="#14af6c"></rect>
    <path d="M289.89,397.45h-14.43v-64.49h14.43v64.49Zm-13.43-1h12.43v-62.49h-12.43v62.49Z"></path>
  </g>
  <g>
    <rect x="224.05" y="333.48" width="13.43" height="63.49" transform="translate(-91.08 77.03) rotate(-15.87)" fill="#14af6c"></rect>
    <path d="M232.65,398.21l-17.64-62.03,13.88-3.95,17.64,62.03-13.88,3.95Zm-16.4-61.34l17.09,60.11,11.96-3.4-17.09-60.11-11.96,3.4Z"></path>
  </g>
  <g>
    <path d="M457.31,404.64s-1.4-7.21,3.36-8.27h14.29l14.59-4.82,27.22,9.06,11.64,12.7,4.76,25.41-44.99-1.06-30.88-33.01Z" fill="#ffc0c0"></path>
    <path d="M533.79,439.23l-45.82-1.08-31.13-33.27-.03-.14c-.52-2.66-.4-7.93,3.74-8.85h.11s14.21-.01,14.21-.01l14.67-4.85,27.5,9.15,11.83,12.9,.03,.14,4.88,26.01Zm-45.37-2.07l44.16,1.04-4.62-24.66-11.46-12.5-26.94-8.96-14.59,4.8h-14.23c-3.83,.9-3.1,6.58-2.95,7.54l30.64,32.75Z"></path>
  </g>
  <g>
    <path d="M373.34,390.02s12.17-1.06,21.7-3.18c0,0,11.64-4.23,13.76,3.18,0,0,2.12,5.82-3.7,10.06l-57.16,49.22-10.59,15.88-6.35-5.29,4.23-48.69s20.64-19.05,21.17-19.05,16.94-2.12,16.94-2.12Z" fill="#ffc0c0"></path>
    <path d="M337.46,465.92l-6.98-5.82,4.27-49.15,.14-.13c20.79-19.19,21.26-19.19,21.51-19.19,.5-.02,10.37-1.27,16.87-2.11h.02c.12-.01,12.25-1.08,21.64-3.17,.22-.09,6.97-2.5,11.26-.3,1.55,.79,2.59,2.08,3.09,3.83,.01,.03,2.16,6.19-3.89,10.6l-57.08,49.15-10.86,16.28Zm-5.94-6.25l5.72,4.77,10.37-15.52,57.16-49.22c5.47-3.98,3.64-9.28,3.56-9.51-.43-1.5-1.3-2.58-2.59-3.24-3.91-2-10.47,.34-10.53,.37-9.39,2.09-21.39,3.17-21.82,3.2-2.65,.34-15.31,1.97-16.85,2.11-1.23,.83-13,11.57-20.83,18.8l-4.19,48.24Z"></path>
  </g>
  <g>
    <path d="M527.89,531.34c-18.16,3.7-26.46-7.12-32.9-20.12-2.75-5.57-5.16-11.53-7.86-16.93-4.21-8.43-12.95-13.14-21.05-15.77-9.2-2.99-17.58-3.29-17.58-3.29l-28.58,.53c-9.35,.68-16.4,3.05-21.67,5.96-11.15,6.14-14.32,14.68-14.32,14.68l-9.84,18.65-.21,.4c-11.64,22.76-31.23,15.35-31.23,15.35l2.12-81.51,12.7-38.64c7.41-19.58,22.76-17.47,22.76-17.47l3.55-2.76c.76-.59,1.77-.75,2.67-.43l18.91,6.75c1.12,.4,1.86,1.46,1.86,2.65v3.31c29.64,10.06,56.1,0,56.1,0l.64-3.2c.26-1.29,1.19-2.36,2.44-2.78l19.37-6.61c1.19-.4,2.49-.19,3.47,.58l3.19,2.48c21.17-1.59,29.64,39.7,29.64,39.7l14.29,56.63c9,36.52-8.47,41.81-8.47,41.81Z" fill="#104fc1"></path>
    <path d="M521.05,532.57c-13.92,0-21-10.01-26.5-21.14-1.35-2.73-2.63-5.58-3.87-8.34-1.29-2.87-2.61-5.83-3.99-8.58-3.48-6.95-10.46-12.17-20.76-15.52-9.02-2.93-17.36-3.26-17.45-3.26l-28.55,.53c-8.2,.59-15.42,2.58-21.44,5.9-10.84,5.97-14.06,14.34-14.09,14.42l-10.08,19.11c-11.71,22.89-31.65,15.66-31.85,15.58l-.33-.13,2.15-82.01,12.7-38.64c6.99-18.47,21.16-17.98,23.08-17.83l3.39-2.63c.89-.7,2.07-.89,3.15-.51l18.91,6.75c1.31,.47,2.2,1.73,2.2,3.12v2.95c27.46,9.18,52.38,.97,55.17-.02l.58-2.93c.29-1.47,1.36-2.68,2.77-3.15l19.37-6.6c1.35-.46,2.82-.21,3.94,.66l3.04,2.36c21.19-1.33,29.63,38.41,29.97,40.11l14.29,56.61c9.01,36.56-8.08,42.19-8.81,42.41h-.04c-2.49,.52-4.8,.76-6.94,.76Zm-72.56-57.84c.11,0,8.59,.34,17.75,3.31,10.57,3.43,17.75,8.82,21.35,16.02,1.39,2.77,2.72,5.74,4.01,8.62,1.23,2.75,2.51,5.6,3.85,8.31,6.17,12.47,14.36,23.51,32.32,19.86,.64-.22,16.74-6.17,8.11-41.21l-14.29-56.63c-.09-.43-8.64-40.86-29.12-39.32h-.19s-3.34-2.58-3.34-2.58c-.85-.66-1.98-.85-3-.5l-19.37,6.6c-1.08,.36-1.89,1.28-2.11,2.4l-.69,3.47-.26,.1c-.27,.1-26.97,10.01-56.44,0l-.34-.12v-3.67c0-.97-.62-1.85-1.53-2.18l-18.91-6.75c-.75-.27-1.57-.14-2.2,.35l-3.71,2.89-.21-.03c-.61-.08-15.05-1.81-22.22,17.15l-12.67,38.55-2.11,81.07c2.67,.88,19.66,5.52,30.27-15.23l10.06-19.06c.11-.3,3.34-8.72,14.52-14.89,6.15-3.39,13.51-5.41,21.88-6.02l28.61-.53Z"></path>
  </g>
  <circle cx="492.43" cy="420.72" r="6.35"></circle>
  <circle cx="479.54" cy="438.19" r="7.49"></circle>
  <circle cx="504.94" cy="436.6" r="7.49"></circle>
  <path d="M454.94,438.19h-38.58c-5.34,0-9.68-4.34-9.68-9.68v-25.78c0-.29,.24-.53,.53-.53s.53,.24,.53,.53v25.78c0,4.75,3.87,8.62,8.62,8.62h38.58c2.35,0,4.55-.93,6.19-2.62,1.64-1.69,2.5-3.91,2.43-6.26l-.77-25.51c0-.29,.22-.54,.52-.55,.26,0,.54,.22,.55,.52l.77,25.51c.08,2.64-.89,5.14-2.73,7.04-1.84,1.9-4.31,2.94-6.95,2.94Z"></path>
  <circle cx="434.21" cy="446.13" r="2.65"></circle>
  <g>
    <rect x="444.79" y="453.01" width="14.82" height="9.53" rx="4.76" ry="4.76" fill="#14af6c"></rect>
    <path d="M454.85,463.03h-5.29c-2.9,0-5.26-2.36-5.26-5.26s2.36-5.26,5.26-5.26h5.29c2.9,0,5.26,2.36,5.26,5.26s-2.36,5.26-5.26,5.26Zm-5.29-9.53c-2.35,0-4.26,1.91-4.26,4.26s1.91,4.26,4.26,4.26h5.29c2.35,0,4.26-1.91,4.26-4.26s-1.91-4.26-4.26-4.26h-5.29Z"></path>
  </g>
  <g>
    <rect x="412.51" y="453.01" width="14.82" height="9.53" rx="4.76" ry="4.76" fill="#f7ce21"></rect>
    <path d="M422.56,463.03h-5.29c-2.9,0-5.26-2.36-5.26-5.26s2.36-5.26,5.26-5.26h5.29c2.9,0,5.26,2.36,5.26,5.26s-2.36,5.26-5.26,5.26Zm-5.29-9.53c-2.35,0-4.26,1.91-4.26,4.26s1.91,4.26,4.26,4.26h5.29c2.35,0,4.26-1.91,4.26-4.26s-1.91-4.26-4.26-4.26h-5.29Z"></path>
  </g>
  <g>
    <circle cx="494.55" cy="420.72" r="6.35" fill="#14af6c"></circle>
    <path d="M494.55,427.57c-3.78,0-6.85-3.07-6.85-6.85s3.07-6.85,6.85-6.85,6.85,3.07,6.85,6.85-3.07,6.85-6.85,6.85Zm0-12.7c-3.23,0-5.85,2.62-5.85,5.85s2.62,5.85,5.85,5.85,5.85-2.62,5.85-5.85-2.62-5.85-5.85-5.85Z"></path>
  </g>
  <g>
    <circle cx="482.03" cy="438.19" r="7.49" fill="#f7ce21"></circle>
    <path d="M482.03,446.17c-4.4,0-7.99-3.58-7.99-7.99s3.58-7.99,7.99-7.99,7.99,3.58,7.99,7.99-3.58,7.99-7.99,7.99Zm0-14.97c-3.85,0-6.99,3.13-6.99,6.99s3.13,6.99,6.99,6.99,6.99-3.13,6.99-6.99-3.13-6.99-6.99-6.99Z"></path>
  </g>
  <g>
    <circle cx="507.44" cy="436.6" r="7.49" fill="#f7ce21"></circle>
    <path d="M507.44,444.58c-4.4,0-7.99-3.58-7.99-7.99s3.58-7.99,7.99-7.99,7.99,3.58,7.99,7.99-3.58,7.99-7.99,7.99Zm0-14.97c-3.85,0-6.99,3.13-6.99,6.99s3.13,6.99,6.99,6.99,6.99-3.13,6.99-6.99-3.13-6.99-6.99-6.99Z"></path>
  </g>
  <circle cx="381.01" cy="432.1" r="19.32"></circle>
  <g>
    <circle cx="381.01" cy="432.1" r="16.14" fill="#f7ce21"></circle>
    <path d="M381.01,448.74c-9.18,0-16.64-7.47-16.64-16.64s7.47-16.64,16.64-16.64,16.64,7.47,16.64,16.64-7.47,16.64-16.64,16.64Zm0-32.29c-8.63,0-15.64,7.02-15.64,15.64s7.02,15.64,15.64,15.64,15.64-7.02,15.64-15.64-7.02-15.64-15.64-15.64Z"></path>
  </g>
  <path d="M546.04,546.7c-6.43,0-9.68-2.84-9.85-2.99l.35-.39c.05,.05,5.33,4.64,15.64,2.06l.13,.51c-2.35,.59-4.44,.82-6.27,.82Z" fill="#231f20"></path>
  <path d="M346.74,524.5c-.66,0-1.04-.05-1.06-.05-.29-.04-.49-.31-.45-.6,.04-.29,.31-.5,.6-.45,.14,.02,14.66,1.78,25.45-19.29l10.06-18.01c.08-.15,8.88-16.15,33.23-18.27l37.09-.53c.38,.02,34.35,2.38,41.27,23.12,.12,.29,12.9,32.01,28.37,32.01,.02,0,.05,0,.07,0,.29,0,.53,.24,.53,.53,0,.29-.24,.53-.53,.54-.02,0-.05,0-.07,0-16.19,0-28.84-31.38-29.37-32.72-6.7-20.09-39.96-22.4-40.29-22.42l-37.01,.53c-23.71,2.06-32.27,17.56-32.35,17.71l-10.06,18c-9.44,18.44-21.82,19.89-25.48,19.89Z"></path>
  <g>
    <path d="M392.39,492.17c.53,4.23-2.65,8.47-2.65,8.47-2.65,5.29-3.7,9.53-3.7,9.53-1.46,10.67-10.47,5.79-11.96,4.89l9.84-18.65s3.17-8.54,14.32-14.68c2.01,9.39-5.85,10.45-5.85,10.45Z" fill="#ffc0c0"></path>
    <path d="M380.06,517.46c-2.68,0-5.31-1.42-6.23-1.97l-.41-.24,10.07-19.07c.11-.3,3.34-8.72,14.52-14.89l.59-.32,.14,.66c.69,3.23,.33,5.87-1.07,7.85-1.5,2.13-3.75,2.87-4.73,3.1,.28,4.22-2.66,8.19-2.79,8.37-2.54,5.1-3.61,9.31-3.62,9.35-.46,3.37-1.74,5.6-3.8,6.59-.85,.41-1.77,.57-2.67,.57Zm-5.31-2.59c1.34,.74,4.89,2.4,7.55,1.12,1.74-.83,2.83-2.81,3.25-5.88,.02-.1,1.11-4.4,3.75-9.68,.08-.12,3.09-4.2,2.6-8.18l-.06-.49,.49-.07s2.87-.42,4.53-2.79c1.13-1.61,1.48-3.76,1.03-6.39-10.35,5.95-13.46,14-13.49,14.08l-9.65,18.28Z"></path>
  </g>
  <path d="M390.34,492.84c-1.08,0-2.48-.1-3.96-.45-.29-.07-.46-.36-.39-.64,.07-.29,.36-.46,.64-.39,2.96,.72,5.65,.3,5.68,.3,.28-.04,.56,.15,.61,.44,.05,.29-.15,.56-.44,.61-.06,.01-.89,.14-2.14,.14Z"></path>
  <g>
    <path d="M495,511.22c-1.42,2.83-4.68,3.19-4.68,3.19-5.82,1.06-6.88-3.18-6.88-3.18-2.12-6.88-6.88-15.88-6.88-15.88-9.53,0-9.53-7.41-9.53-7.41l-.94-9.42c8.1,2.63,16.84,7.34,21.05,15.77,2.7,5.39,5.11,11.36,7.86,16.93Z" fill="#ffc0c0"></path>
    <path d="M488.53,515.08c-4.59,0-5.57-3.69-5.58-3.73-1.87-6.08-5.9-13.97-6.7-15.5-9.61-.16-9.72-7.83-9.72-7.91l-1.02-10.13,.73,.24c10.57,3.43,17.75,8.82,21.35,16.02,1.39,2.77,2.72,5.74,4.01,8.62,1.23,2.75,2.51,5.6,3.85,8.31l.11,.22-.11,.22c-1.53,3.03-4.93,3.44-5.08,3.46-.67,.12-1.28,.18-1.84,.18Zm-21.87-35.84l.87,8.65c0,.33,.14,6.96,9.03,6.96h.3l.14,.27c.05,.09,4.81,9.12,6.92,15.97,.05,.18,1.05,3.78,6.31,2.83,.06,0,2.88-.36,4.21-2.7-1.31-2.66-2.55-5.43-3.75-8.11-1.29-2.87-2.61-5.83-3.99-8.58-3.39-6.79-10.13-11.92-20.03-15.27Z"></path>
  </g>
  <path d="M476.55,495.85c-.23,0-.44-.16-.49-.4-.06-.27,.11-.54,.38-.59,.06-.01,5.7-1.27,6.33-6.04,.04-.27,.29-.46,.56-.43,.27,.04,.47,.29,.43,.56-.73,5.47-6.85,6.83-7.12,6.88-.03,0-.07,.01-.1,.01Z"></path>
  <g>
    <path d="M631.1,617.08l-45.52-92.62c-10.59-15.35-17.47-62.98-17.47-62.98-2.65-19.05-12.7-32.29-12.7-32.29-4.23-22.23-11.11-36.52-11.11-36.52-6.35-10.59-45.52-39.17-45.52-39.17-10.06-6.35-12.7,2.12-12.7,2.12-6.88,12.17,15.88,26.99,15.88,26.99,3.7,9,16.41,21.17,16.41,21.17,1.06,11.64,6.88,22.76,6.88,22.76-1.06,3.7-3.24,5.03-3.24,5.03l3.29,14.89-24.39-17.28c-13.23-10.06-20.11-2.65-20.11-2.65-14.29,19.58,26.46,42.34,26.46,42.34,9.53,10.06,12.17,25.93,12.17,25.93l.53,19.58c1.06,19.58,16.41,29.11,16.41,29.11l25.93,98.98" fill="#ffc0c0"></path>
    <path d="M561.81,642.62l-25.89-98.79c-1.7-1.14-15.47-10.9-16.47-29.4l-.53-19.6c-.02-.09-2.72-15.72-11.98-25.55-1.76-.99-25.91-14.84-29.3-30.35-1-4.56-.07-8.83,2.74-12.69,.11-.12,7.38-7.67,20.82,2.54l23.32,16.52-3.09-13.98,.31-.19s1.96-1.25,2.97-4.56c-.75-1.49-5.8-11.85-6.83-22.58-1.44-1.4-12.72-12.49-16.33-21.07-2.04-1.35-22.69-15.45-15.94-27.53,.15-.44,1.22-3.3,4.16-4.38,2.54-.93,5.66-.25,9.27,2.04,1.63,1.19,39.35,28.78,45.68,39.33,.09,.18,6.96,14.6,11.16,36.57,.91,1.25,10.21,14.31,12.73,32.42,.07,.47,6.98,47.69,17.38,62.77l45.56,92.69-.9,.44-45.52-92.62c-10.49-15.21-17.23-61.18-17.51-63.13-2.6-18.71-12.51-31.92-12.61-32.05l-.07-.09-.02-.12c-4.17-21.9-11.01-36.26-11.07-36.4-6.21-10.34-44.97-38.69-45.36-38.98-3.31-2.09-6.13-2.75-8.36-1.93-2.65,.97-3.56,3.77-3.57,3.79l-.04,.1c-6.57,11.63,15.49,26.18,15.72,26.33l.13,.08,.06,.14c3.62,8.8,16.17,20.88,16.29,21l.13,.13,.02,.19c1.04,11.41,6.77,22.46,6.83,22.57l.09,.18-.05,.19c-.88,3.07-2.5,4.59-3.17,5.11l3.5,15.83-25.45-18.03c-12.69-9.65-19.19-3-19.46-2.71-2.6,3.57-3.47,7.57-2.54,11.84,3.35,15.31,28.62,29.58,28.88,29.73l.12,.09c9.52,10.05,12.28,26.04,12.3,26.2l.54,19.65c1.03,19.07,16.02,28.61,16.17,28.7l.17,.11,.05,.19,25.94,98.98-.97,.25Z"></path>
  </g>
  <path d="M556.47,486.32c-.24,0-.45-.17-.49-.42-.17-1.05-.91-2.68-2.13-4.72-1.35-2.26-3.07-4.47-5.12-6.58-5.84-6-12.19-14.87-12.25-14.96-4.68-6.75-11.46-12.74-11.52-12.8-.21-.18-.23-.5-.05-.71,.18-.21,.5-.23,.71-.05,.07,.06,6.94,6.13,11.68,12.98,.06,.08,6.37,8.89,12.15,14.84,2.1,2.16,3.87,4.43,5.26,6.76,1.3,2.17,2.06,3.88,2.25,5.07,.05,.27-.14,.53-.41,.58-.03,0-.06,0-.08,0Z"></path>
  <path d="M501.96,383.11s-.08,0-.12-.02c-.27-.07-.43-.34-.36-.61,.05-.18,1.17-4.5,6.1-6.69,.25-.11,.55,0,.66,.25,.11,.25,0,.55-.25,.66-4.47,1.99-5.53,5.98-5.54,6.02-.06,.23-.26,.38-.48,.38Z"></path>
  <path d="M518.36,404.28c-.1,0-.19-.03-.28-.08-.23-.15-.29-.46-.14-.69,.09-.14,2.3-3.38,7.24-3.92,.28-.03,.52,.17,.55,.44s-.17,.52-.44,.55c-4.48,.5-6.5,3.46-6.52,3.49-.1,.14-.25,.22-.42,.22Z"></path>
  <path d="M538.48,433.39s-.07,0-.1,0c-8.51-1.7-13.44-6.44-13.49-6.49-.2-.2-.2-.51,0-.71s.51-.2,.71,0c.05,.05,4.75,4.57,12.98,6.21,.27,.05,.45,.32,.39,.59-.05,.24-.26,.4-.49,.4Z"></path>
  <path d="M510.95,455.09c-.08,0-.15-.02-.22-.05-.25-.12-.35-.42-.22-.67,.11-.22,2.8-5.5,8.74-7.66,.26-.09,.55,.04,.64,.3,.09,.26-.04,.55-.3,.64-5.56,2.02-8.17,7.11-8.19,7.16-.09,.17-.26,.28-.45,.28Z"></path>
  <path d="M515.19,458.8c-.2,0-.38-.12-.46-.31-.11-.25,.01-.55,.27-.65,6.08-2.53,8.18-7.11,8.2-7.15,.11-.25,.41-.37,.66-.25,.25,.11,.37,.41,.25,.66-.09,.2-2.27,4.98-8.73,7.67-.06,.03-.13,.04-.19,.04Z"></path>
  <g>
    <path d="M228.84,622.91l49.22-84.16s1.59-13.76,16.41-46.05c0,0,0-21.17,13.23-52.93,0,0,8.72-24.41,19.03-40.79,1.94-3.08,4.36-5.83,7.19-8.14,7.81-6.38,26.16-19.98,46.62-25.42,5.03-1.34,10.16,2.29,10.36,7.48,.14,3.6-1.74,7.85-8.57,11.82l-9,5.82s-18.52,16.41-24.35,19.58c0,0-2.12,15.35-9.53,22.23,0,0,1.59,13.23-2.65,24.35v4.76s3.65-2.03,6.33-8.56c1.49-3.63,3.92-6.83,7.19-9.02,1.42-.95,3.09-1.85,5.01-2.54,0,0,3.18,0,12.7-9,0,0,13.76-14.82,23.29-4.23,0,0,11.11,15.88-15.35,32.82,0,0-4.76,1.59-8.47,7.94l-12.73,17.31c-.33,.44-.54,.96-.61,1.51-.65,4.98-4.37,31.16-11.54,43.1,0,0,2.65,1.06,7.41,1.06,0,0-11.95,18.78-19.75,26.44-1.71,1.68-3.01,3.73-3.78,6l-30.98,91.94" fill="#ffc0c0"></path>
    <path d="M296.01,656.41l-.95-.32,30.98-91.94c.78-2.31,2.13-4.46,3.9-6.2,6.79-6.67,16.88-22.02,19.2-25.6-4.23-.12-6.58-1.04-6.69-1.08l-.55-.22,.3-.5c7.1-11.84,10.8-37.82,11.47-42.91,.08-.63,.32-1.23,.7-1.74l12.73-17.31c3.54-6.08,8.04-7.88,8.65-8.1,9.87-6.33,15.6-13.19,17.04-20.4,1.38-6.89-1.85-11.63-1.88-11.68-2.12-2.35-4.68-3.57-7.58-3.6h-.08c-7.43,0-14.78,7.81-14.85,7.89-8.83,8.34-12.28,9.09-12.97,9.15-1.68,.61-3.31,1.43-4.83,2.46-3.06,2.06-5.48,5.1-7,8.79-2.72,6.62-6.4,8.72-6.55,8.81l-.74,.41,.03-5.79c4.14-10.87,2.63-23.98,2.62-24.11l-.03-.25,.19-.17c7.19-6.68,9.35-21.78,9.37-21.93l.03-.25,.22-.12c5.71-3.11,24.07-19.36,24.25-19.52l9.06-5.87c5.71-3.31,8.51-7.14,8.34-11.38-.09-2.27-1.21-4.36-3.07-5.74-1.93-1.43-4.36-1.89-6.66-1.28-20.66,5.5-39.36,19.54-46.44,25.32-2.78,2.27-5.16,4.97-7.08,8.02-10.17,16.15-18.9,40.45-18.98,40.69-13.04,31.31-13.2,52.55-13.2,52.76l-.05,.21c-14.6,31.81-16.35,45.76-16.37,45.9l-.06,.19-49.22,84.16-.86-.5,49.17-84.07c.19-1.36,2.42-15.54,16.39-45.99,.03-1.71,.64-22.7,13.27-53.01,.08-.22,8.84-24.62,19.07-40.86,1.98-3.14,4.43-5.92,7.29-8.26,7.13-5.82,25.96-19.97,46.81-25.52,2.6-.69,5.33-.16,7.51,1.44,2.11,1.56,3.38,3.93,3.48,6.5,.18,4.64-2.79,8.77-8.82,12.27l-8.98,5.81c-.69,.62-18.14,16.05-24.16,19.48-.31,2.07-2.58,15.52-9.46,22.11,.19,1.89,1.2,14.01-2.67,24.25v3.7c1.17-.95,3.51-3.26,5.37-7.78,1.59-3.88,4.14-7.07,7.37-9.24,1.61-1.08,3.33-1.95,5.12-2.59l.17-.03s3.25-.25,12.36-8.86c.29-.31,7.7-8.26,15.65-8.18,3.19,.02,6,1.36,8.35,3.98,.18,.25,3.53,5.15,2.09,12.47-1.49,7.51-7.39,14.61-17.54,21.1l-.11,.05s-4.64,1.62-8.2,7.72l-12.76,17.36c-.28,.38-.45,.82-.52,1.28-.66,5.05-4.29,30.52-11.29,42.76,1,.29,3.3,.84,6.67,.84h.91l-.49,.77c-.12,.19-12.07,18.92-19.83,26.53-1.66,1.63-2.92,3.64-3.65,5.8l-30.98,91.94Z"></path>
  </g>
  <path d="M314.06,567.3v-1c.07,0,7.31-.07,13.44-5.18l.64,.77c-6.42,5.35-13.77,5.41-14.08,5.41Z"></path>
  <path d="M315.65,486.32c-.12,0-.23-.04-.33-.12-.21-.18-.23-.5-.05-.71l21.17-24.35c.18-.21,.5-.23,.71-.05,.21,.18,.23,.5,.05,.71l-21.17,24.35c-.1,.11-.24,.17-.38,.17Z"></path>
  <path d="M339.46,432.86c-.08,0-.17-.02-.24-.06-.05-.03-4.69-2.58-7.7-2.58-.28,0-.5-.22-.5-.5s.22-.5,.5-.5c3.27,0,7.98,2.6,8.18,2.71,.24,.13,.33,.44,.19,.68-.09,.16-.26,.26-.44,.26Z"></path>
  <path d="M348.99,410.63c-.25,0-.46-.18-.49-.43-.49-3.45-7.13-8.08-7.2-8.13-.23-.16-.28-.47-.13-.7,.16-.23,.47-.28,.7-.13,.29,.2,7.07,4.93,7.62,8.81,.04,.27-.15,.53-.42,.57-.02,0-.05,0-.07,0Z"></path>
  <path d="M371.06,392.93c-.27,0-.49-.21-.5-.49-.15-5.18-3.78-7.26-3.82-7.28-.24-.13-.33-.44-.19-.68,.13-.24,.44-.33,.68-.19,.17,.09,4.16,2.39,4.33,8.13,0,.28-.21,.51-.49,.51h-.02Z"></path>
  <path d="M359.58,459.33s-.09,0-.13-.02c-8.09-2.16-10.3-7.48-10.39-7.71-.1-.26,.02-.55,.28-.65,.26-.1,.55,.02,.65,.28,.02,.05,2.15,5.09,9.72,7.11,.27,.07,.43,.34,.35,.61-.06,.22-.26,.37-.48,.37Z"></path>
  <path d="M363.81,455.09c-.22,0-.41-.14-.48-.36-1.5-5-9.16-8.12-9.23-8.15-.26-.1-.38-.39-.28-.65,.1-.26,.4-.38,.65-.28,.33,.13,8.18,3.33,9.82,8.79,.08,.26-.07,.54-.34,.62-.05,.01-.1,.02-.14,.02Z"></path>
  <g>
    <path d="M685.1,264.57c-.79-8.75-7.69-9.95-9-10.88-.29-.2-.54-.45-.76-.72-.81-1.05-1.25-2.34-1.23-3.67v-8.85h-17.33v8.85c.02,1.33-.41,2.62-1.23,3.67-.22,.28-.47,.52-.76,.72-1.32,.93-8.22,2.13-9,10.88-.78,8.75-3.71,28.65,1.46,35,4.77,5.87,9.42,6.22,17.18,6.24h2.06c7.75,0,12.41-.37,17.17-6.24,5.16-6.35,2.24-26.24,1.44-35Z" fill="#f7ce21"></path>
    <path d="M666.49,306.31h-2.06c-7.67-.02-12.62-.34-17.57-6.42-4.63-5.69-3.02-21.2-1.96-31.47,.15-1.45,.29-2.76,.39-3.89,.67-7.54,5.74-9.71,8.18-10.75,.45-.19,.84-.36,1.03-.49,.25-.17,.47-.38,.65-.62,.75-.95,1.15-2.14,1.12-3.35v-9.36h18.33v9.35c-.02,1.22,.38,2.41,1.12,3.36,.19,.23,.41,.44,.65,.62,.18,.13,.58,.3,1.03,.49,2.43,1.04,7.5,3.22,8.18,10.75,.1,1.09,.23,2.36,.38,3.76,1.02,9.68,2.72,25.89-1.93,31.6-4.96,6.11-9.9,6.42-17.56,6.42Zm-9.21-65.36v8.35c.02,1.43-.45,2.85-1.34,3.98-.25,.32-.54,.59-.87,.82-.27,.19-.68,.37-1.21,.59-2.43,1.04-6.96,2.98-7.58,9.92-.1,1.13-.24,2.45-.39,3.9-.98,9.49-2.63,25.37,1.74,30.74,4.67,5.75,9.2,6.04,16.79,6.06h2.06c7.58,0,12.1-.28,16.78-6.05,4.38-5.39,2.71-21.34,1.71-30.87-.15-1.4-.28-2.67-.38-3.77h0c-.63-6.94-5.15-8.88-7.58-9.92-.53-.23-.94-.4-1.21-.6-.32-.23-.61-.5-.86-.82-.88-1.14-1.36-2.55-1.34-3.99v-8.34h-16.33Z"></path>
  </g>
  <g>
    <path d="M634.78,212.66c-.85-1.49-.85-3.31,0-4.8,.84-1.46,2.05-2.67,3.5-3.53,1.19-.88,2.62-1.39,4.1-1.45,1.78,.12,3.4,1.09,4.34,2.61,.92,1.51,1.43,3.23,1.48,5-1.6,1.39-3.44,2.47-5.43,3.21-1.32,.63-2.77,.95-4.23,.93-1.49-.04-2.88-.76-3.76-1.97Z" fill="#14af6c"></path>
    <path d="M638.68,215.13c-.05,0-.1,0-.15,0-1.64-.04-3.19-.85-4.16-2.18l-.03-.05c-.93-1.63-.93-3.66,0-5.29,.89-1.53,2.16-2.82,3.68-3.71,1.23-.92,2.75-1.45,4.33-1.52,1.99,.14,3.76,1.2,4.79,2.84,.97,1.58,1.51,3.4,1.56,5.25v.24s-.17,.15-.17,.15c-1.65,1.43-3.53,2.54-5.58,3.3-1.29,.62-2.78,.96-4.26,.96Zm-3.48-2.74c.78,1.06,2.03,1.71,3.35,1.74,1.37,.03,2.76-.28,4-.88,1.9-.71,3.62-1.7,5.14-2.98-.08-1.6-.56-3.15-1.4-4.52-.86-1.37-2.33-2.26-3.95-2.37-1.33,.06-2.65,.53-3.77,1.35-1.42,.84-2.57,2-3.36,3.38-.75,1.32-.75,2.95-.01,4.28Z"></path>
  </g>
  <g>
    <path d="M658.3,201.78c-.85-1.48-.85-3.31,0-4.79,.84-1.46,2.05-2.68,3.51-3.53,1.19-.89,2.62-1.4,4.1-1.46,1.78,.13,3.39,1.1,4.33,2.61,.92,1.51,1.43,3.23,1.48,5-1.6,1.39-3.43,2.48-5.42,3.21-1.32,.64-2.77,.96-4.23,.93-1.5-.03-2.89-.76-3.77-1.97Z" fill="#14af6c"></path>
    <path d="M662.26,204.25c-.07,0-.13,0-.2,0-1.64-.03-3.2-.84-4.17-2.18l-.03-.04c-.93-1.63-.93-3.66,0-5.29,.89-1.53,2.16-2.82,3.69-3.71,1.23-.92,2.74-1.46,4.33-1.53,1.99,.14,3.75,1.21,4.78,2.84,.97,1.58,1.51,3.4,1.56,5.25v.24s-.17,.15-.17,.15c-1.65,1.43-3.52,2.54-5.57,3.3-1.28,.63-2.75,.96-4.22,.96Zm-3.54-2.74c.78,1.07,2.03,1.72,3.36,1.74,1.37,.04,2.76-.28,4-.88,1.91-.71,3.62-1.7,5.13-2.98-.08-1.6-.56-3.15-1.4-4.52-.85-1.37-2.33-2.25-3.94-2.37-1.33,.06-2.65,.53-3.76,1.36-1.42,.84-2.58,2-3.38,3.38-.75,1.31-.76,2.95-.01,4.27Z"></path>
  </g>
  <g>
    <path d="M689.37,200.12c1.07-1.37,1.32-3.2,.68-4.81-.66-1.57-1.71-2.95-3.05-4-1.08-1.04-2.44-1.74-3.92-2-1.8-.12-3.55,.62-4.71,2-1.12,1.39-1.87,3.05-2.15,4.81,1.41,1.62,3.11,2.98,5,4,1.24,.82,2.65,1.33,4.12,1.5,1.5,.16,3-.4,4.03-1.5Z" fill="#14af6c"></path>
    <path d="M685.84,202.14c-.19,0-.37,0-.56-.03-1.55-.18-3.05-.72-4.34-1.58-1.92-1.03-3.65-2.41-5.1-4.09l-.15-.18,.04-.23c.3-1.85,1.08-3.59,2.26-5.04,1.27-1.5,3.18-2.31,5.13-2.18,1.64,.29,3.08,1.02,4.23,2.14,1.37,1.06,2.48,2.52,3.16,4.17,.71,1.77,.42,3.81-.75,5.31l-.03,.03c-1.01,1.08-2.43,1.69-3.89,1.69Zm-9.09-6.18c1.34,1.51,2.92,2.75,4.7,3.71,1.2,.79,2.55,1.29,3.94,1.44,1.33,.14,2.67-.35,3.59-1.33,.94-1.22,1.17-2.87,.6-4.3-.62-1.48-1.62-2.8-2.89-3.79-1.05-1.01-2.31-1.66-3.7-1.9-1.58-.1-3.18,.58-4.24,1.83-1.01,1.25-1.7,2.75-2,4.34Z"></path>
  </g>
  <g>
    <path d="M656.92,187.9c-.2-1.69-1.33-3.12-2.93-3.7-1.42-.3-2.9-.06-4.15,.68-1.34,.59-2.46,1.59-3.2,2.85-.94,1.92-1.23,4.09-.84,6.19,.35,1.89,1.11,3.68,2.24,5.24,1.68-.27,3.49-1.62,5-2.79,1.22-.89,2.23-2.04,2.95-3.37,.84-1.56,1.16-3.34,.93-5.1Z" fill="#14af6c"></path>
    <path d="M647.81,199.7l-.18-.25c-1.16-1.61-1.97-3.49-2.33-5.44-.41-2.19-.1-4.5,.88-6.5,.81-1.4,2-2.45,3.45-3.09,1.31-.77,2.91-1.04,4.45-.71,1.85,.67,3.1,2.24,3.32,4.13,.25,1.87-.09,3.74-.99,5.4-.75,1.39-1.82,2.61-3.1,3.54-1.67,1.3-3.47,2.6-5.21,2.88l-.3,.05Zm4.99-15.13c-.93,0-1.88,.25-2.71,.74-1.3,.58-2.33,1.49-3.02,2.67-.87,1.78-1.15,3.86-.78,5.85,.31,1.7,.99,3.35,1.97,4.78,1.43-.34,2.99-1.48,4.47-2.63,1.17-.85,2.14-1.96,2.82-3.21,.79-1.48,1.09-3.13,.87-4.8h0c-.18-1.52-1.18-2.78-2.6-3.3-.33-.07-.67-.1-1.01-.1Z"></path>
  </g>
  <g>
    <path d="M667.38,175.52c-1.88-.28-3.76,.52-4.87,2.07-.9,1.48-1.31,3.21-1.17,4.94-.05,1.64,.43,3.26,1.35,4.62,1.41,1.69,3.42,2.76,5.61,3,2.05,.25,4.13-.01,6.05-.76,.47-2,0-4.51-.48-6.66-.31-1.64-.99-3.18-2-4.51-1.11-1.43-2.71-2.39-4.49-2.7Z" fill="#14af6c"></path>
    <path d="M669.79,190.74c-.52,0-1.04-.03-1.55-.09-2.32-.25-4.43-1.38-5.93-3.18-1.02-1.5-1.52-3.2-1.47-4.96-.15-1.79,.28-3.6,1.24-5.19,1.24-1.74,3.29-2.61,5.37-2.3h.01c1.91,.34,3.61,1.36,4.8,2.89,1.05,1.39,1.77,3.02,2.1,4.72,.53,2.36,.95,4.84,.48,6.87l-.06,.26-.25,.1c-1.51,.58-3.12,.88-4.74,.88Zm-3.16-14.77c-1.46,0-2.85,.7-3.72,1.92-.83,1.37-1.21,2.97-1.08,4.61-.04,1.6,.39,3.1,1.27,4.38,1.31,1.56,3.18,2.56,5.25,2.78,1.88,.22,3.79,0,5.56-.64,.34-1.79-.05-4.02-.54-6.18-.3-1.57-.96-3.06-1.91-4.32-1.03-1.32-2.51-2.21-4.17-2.51-.22-.03-.45-.05-.67-.05Z"></path>
  </g>
  <g>
    <path d="M654.47,238.26h21.74c.6,0,1.09,.72,1.09,1.6v.1c0,.89-.49,1.6-1.09,1.6h-21.74c-.6,0-1.09-.72-1.09-1.6v-.1c0-.89,.49-1.6,1.09-1.6Z" fill="#f7ce21"></path>
    <path d="M676.21,242.07h-21.74c-.89,0-1.59-.92-1.59-2.1v-.1c0-1.18,.7-2.1,1.59-2.1h21.74c.89,0,1.59,.92,1.59,2.1v.1c0,1.18-.7,2.1-1.59,2.1Zm-21.74-3.31c-.28,0-.59,.47-.59,1.1v.1c0,.63,.31,1.1,.59,1.1h21.74c.28,0,.59-.47,.59-1.1v-.1c0-.63-.31-1.1-.59-1.1h-21.74Z"></path>
  </g>
  <path d="M647.58,280.49s-.01,0-.02,0c-.28,0-.49-.24-.48-.52l.5-15.6s.07-5.07,4.39-6.15c.27-.07,.54,.1,.61,.36,.07,.27-.1,.54-.36,.61-3.57,.89-3.64,5.02-3.64,5.2l-.5,15.61c0,.27-.23,.48-.5,.48Z"></path>
  <path d="M649.09,207.21c-.24,0-.45-.17-.49-.41-2.2-12.03-.04-16.16,.05-16.33,.13-.24,.44-.33,.68-.2,.24,.13,.33,.43,.2,.68h0s-2.07,4.08,.05,15.67c.05,.27-.13,.53-.4,.58-.03,0-.06,0-.09,0Z"></path>
  <path d="M653.59,217.71c-.19,0-.37-.11-.46-.3-3.8-8.55-9.41-7.72-9.46-7.71-.27,.05-.53-.14-.58-.41s.14-.53,.41-.58c.26-.04,6.43-.96,10.54,8.29,.11,.25,0,.55-.25,.66-.07,.03-.14,.04-.2,.04Z"></path>
  <path d="M672.31,203.92s-.01,0-.02,0c-.28,0-.49-.24-.48-.52,.06-1.85-.38-3.24-1.32-4.12-1.35-1.27-3.33-1.08-3.35-1.08-.27,.02-.52-.17-.55-.45-.03-.27,.17-.52,.44-.55,.1-.01,2.44-.24,4.13,1.34,1.16,1.08,1.72,2.73,1.64,4.89,0,.27-.23,.48-.5,.48Z"></path>
  <path d="M672.55,201.87s-.09,0-.14-.02c-.27-.08-.42-.35-.34-.62,.02-.08,2.24-7.58,8.61-6.52,.27,.05,.46,.3,.41,.58-.04,.27-.3,.46-.58,.41-5.49-.92-7.46,5.74-7.48,5.8-.06,.22-.26,.36-.48,.36Z"></path>
  <path d="M674.09,196.21s-.07,0-.11-.01c-.27-.06-.44-.33-.38-.6,.72-3.25,.51-5.79-.6-7.34-1.01-1.39-2.4-1.55-2.45-1.56-.27-.03-.48-.27-.45-.55,.03-.27,.26-.48,.54-.45,.08,0,1.87,.19,3.16,1.94,1.32,1.81,1.59,4.56,.79,8.16-.05,.23-.26,.39-.49,.39Z"></path>
  <g>
    <rect x="108.17" y="26.64" width="121.42" height="162.69" fill="#f1f2f2"></rect>
    <path d="M229.58,189.83H108.17c-.28,0-.5-.22-.5-.5V26.64c0-.28,.22-.5,.5-.5h121.42c.28,0,.5,.22,.5,.5V189.33c0,.28-.22,.5-.5,.5Zm-120.92-1h120.42V27.14H108.67V188.83Z"></path>
  </g>
  <g>
    <rect x="113.76" y="32.84" width="110.22" height="150.31" fill="#fff"></rect>
    <path d="M223.98,183.65H113.76c-.28,0-.5-.22-.5-.5V32.84c0-.28,.22-.5,.5-.5h110.22c.28,0,.5,.22,.5,.5V183.15c0,.28-.22,.5-.5,.5Zm-109.72-1h109.22V33.34H114.26V182.65Z"></path>
  </g>
  <g>
    <path d="M131.01,139.19c3.28-3.24,8.12-4.16,12.65-4.04s9.01,1.11,13.51,1.06c7.23-.1,14.45-2.87,21.58-1.6,2.28,.41,4.59,1.23,6.85,.74,1.99-.44,3.68-1.84,5.59-2.46,5.03-1.56,10.68,2.46,15.52,.39v33.54h-75.69v-27.64Z" fill="#104fc1"></path>
    <path d="M207.21,167.33h-76.69v-28.35l.15-.15c3.69-3.65,9.1-4.3,13.01-4.18,2.09,.06,4.19,.3,6.21,.53,2.39,.27,4.86,.55,7.27,.53,2.85-.04,5.75-.51,8.57-.96,4.3-.69,8.74-1.41,13.11-.63,.55,.1,1.11,.22,1.67,.34,1.74,.38,3.38,.75,4.99,.4,1.03-.23,1.98-.74,2.99-1.27,.81-.43,1.66-.88,2.55-1.17,2.54-.79,5.2-.23,7.77,.3,2.75,.57,5.34,1.12,7.71,.1l.7-.3v34.8Zm-75.69-1h74.69v-32.33c-2.46,.77-5.08,.23-7.61-.3-2.44-.51-4.97-1.04-7.26-.33-.8,.26-1.57,.67-2.38,1.1-1.02,.54-2.08,1.11-3.25,1.37-1.82,.4-3.65,0-5.42-.4-.54-.12-1.09-.24-1.63-.34-4.21-.75-8.56-.05-12.78,.63-2.85,.46-5.79,.93-8.71,.97-2.48,.03-4.98-.26-7.4-.53-2.01-.23-4.08-.47-6.13-.52-3.65-.1-8.69,.48-12.13,3.75v26.93Z"></path>
  </g>
  <path d="M113.76,33.34c-.14,0-.27-.06-.37-.17l-5.6-6.2c-.19-.2-.17-.52,.04-.71,.2-.18,.52-.17,.71,.04l5.6,6.2c.19,.2,.17,.52-.04,.71-.1,.09-.22,.13-.33,.13Z"></path>
  <path d="M223.98,33.34c-.12,0-.24-.04-.33-.13-.21-.19-.22-.5-.04-.71l5.6-6.2c.19-.21,.5-.22,.71-.04,.21,.19,.22,.5,.04,.71l-5.6,6.2c-.1,.11-.23,.17-.37,.17Z"></path>
  <path d="M229.58,189.83c-.14,0-.27-.06-.37-.16l-5.6-6.19c-.19-.2-.17-.52,.04-.71,.2-.19,.52-.17,.71,.04l5.6,6.19c.19,.2,.17,.52-.04,.71-.1,.09-.22,.13-.34,.13Z"></path>
  <path d="M108.17,189.83c-.12,0-.24-.04-.34-.13-.2-.19-.22-.5-.04-.71l5.6-6.19c.19-.2,.5-.22,.71-.04,.2,.19,.22,.5,.04,.71l-5.6,6.19c-.1,.11-.23,.16-.37,.16Z"></path>
  <path d="M134.54,141.04c-.28,0-.5-.22-.5-.5V51.77c0-.28,.22-.5,.5-.5s.5,.22,.5,.5v88.77c0,.28-.22,.5-.5,.5Z"></path>
  <path d="M140.72,141.04c-.28,0-.5-.22-.5-.5V51.77c0-.28,.22-.5,.5-.5s.5,.22,.5,.5v88.77c0,.28-.22,.5-.5,.5Z"></path>
  <path d="M146.9,141.04c-.28,0-.5-.22-.5-.5V51.77c0-.28,.22-.5,.5-.5s.5,.22,.5,.5v88.77c0,.28-.22,.5-.5,.5Z"></path>
  <path d="M153.08,141.04c-.28,0-.5-.22-.5-.5V51.77c0-.28,.22-.5,.5-.5s.5,.22,.5,.5v88.77c0,.28-.22,.5-.5,.5Z"></path>
  <path d="M159.26,141.04c-.28,0-.5-.22-.5-.5V51.77c0-.28,.22-.5,.5-.5s.5,.22,.5,.5v88.77c0,.28-.22,.5-.5,.5Z"></path>
  <path d="M165.45,141.04c-.28,0-.5-.22-.5-.5V51.77c0-.28,.22-.5,.5-.5s.5,.22,.5,.5v88.77c0,.28-.22,.5-.5,.5Z"></path>
  <path d="M171.63,141.04c-.28,0-.5-.22-.5-.5V51.77c0-.28,.22-.5,.5-.5s.5,.22,.5,.5v88.77c0,.28-.22,.5-.5,.5Z"></path>
  <path d="M177.81,141.04c-.28,0-.5-.22-.5-.5V51.77c0-.28,.22-.5,.5-.5s.5,.22,.5,.5v88.77c0,.28-.22,.5-.5,.5Z"></path>
  <path d="M183.99,141.04c-.28,0-.5-.22-.5-.5V51.77c0-.28,.22-.5,.5-.5s.5,.22,.5,.5v88.77c0,.28-.22,.5-.5,.5Z"></path>
  <path d="M190.17,141.04c-.28,0-.5-.22-.5-.5V51.77c0-.28,.22-.5,.5-.5s.5,.22,.5,.5v88.77c0,.28-.22,.5-.5,.5Z"></path>
  <path d="M196.36,141.04c-.28,0-.5-.22-.5-.5V51.77c0-.28,.22-.5,.5-.5s.5,.22,.5,.5v88.77c0,.28-.22,.5-.5,.5Z"></path>
  <path d="M202.54,141.04c-.28,0-.5-.22-.5-.5V51.77c0-.28,.22-.5,.5-.5s.5,.22,.5,.5v88.77c0,.28-.22,.5-.5,.5Z"></path>
</svg>
